/* XPM */
static char *f9cf2136ae294c75ed400c3153caa324c27uCHbxQbvUF9yo[] = {
/* columns rows colors chars-per-pixel */
"64 64 86 1 ",
"  c #020202",
". c #080706",
"X c #080807",
"o c #0C0C0B",
"O c #10100F",
"+ c #141312",
"@ c #1A1917",
"# c #1D1C1B",
"$ c #21201F",
"% c #242321",
"& c #292726",
"* c #282827",
"= c #2B2B2A",
"- c #312F2D",
"; c #31302F",
": c #353433",
"> c #383736",
", c #393937",
"< c #3D3D3C",
"1 c #413F3D",
"2 c #464644",
"3 c #4D4C4B",
"4 c #504F4D",
"5 c #545452",
"6 c #5C5957",
"7 c #5D5B5A",
"8 c #615E5C",
"9 c #63615F",
"0 c #666462",
"q c #696664",
"w c #6A6967",
"e c #6E6D6B",
"r c #716E6C",
"t c #73716F",
"y c #757472",
"u c #797675",
"i c #7A7877",
"p c #7D7C7A",
"a c #807E7D",
"s c #84817F",
"d c #848382",
"f c #898785",
"g c #8A8987",
"h c #8D8C8A",
"j c #908F8D",
"k c #93918F",
"l c #949391",
"z c #999795",
"x c #9D9A97",
"c c #9E9C9A",
"v c #A09E9B",
"b c #A3A19F",
"n c #A4A3A2",
"m c #A9A6A4",
"M c #ABA9A7",
"N c #ADACAA",
"B c #B2AFAD",
"V c #B3B0AF",
"C c #B5B3B1",
"Z c #B9B6B4",
"A c #BBB8B6",
"S c #BDBCB9",
"D c #C1BEBC",
"F c #C4C1BF",
"G c #C6C4C2",
"H c #C9C6C4",
"J c #CDC9C7",
"K c #CECCCA",
"L c #D1CECC",
"P c #D4D1CE",
"I c #D6D4D2",
"U c #D9D6D4",
"Y c #DBD9D6",
"T c #DEDBD9",
"R c #E0DEDB",
"E c #E3E1DE",
"W c #E6E5E2",
"Q c #E8E7E3",
"! c #EBEAE5",
"~ c #EEEEEC",
"^ c #F0EFEE",
"/ c #F0F0EF",
"( c #F4F4F3",
") c #F8F7F6",
"_ c #F8F8F7",
"` c #FDFDFD",
/* pixels */
"/~(```_///(```)~(~_``_)///_``_(//(_``_(~/(```)(~()```(///_```///",
"``_(/((```)(/((```)(((_```((((_``_((((```_(//)``_)/((_```((//```",
"```~~~(```_~/~)```(/~~)```/~~~````(~~(````~~~(```_~~~_```(~~~```",
"```~~~(```_(~~)```(~~~_```(~~(````~~~(```_~~~(```)~~/_```(~~/```",
"``_((~(```_(//)```(///__``((/(_``_((((```_(//(```)(/(_``_)(((_`_",
"~((```_(//(```)///)```_///```_(~~(```_/~/(```_///)```(//(_```(~(",
"~~(````~~~)```_~~~_```(~~/````(~~(````~~~(```_~~~_```)~~~_```(~~",
"~~(```_/~~)```_~~(_```(~~/_```(~~/````/~~)```_~~~_```)~~~_```(~~",
"(/(__`_(/()_``)/(()`___///_```///(_`__(((__``_/(()``_)(((_`_`(/(",
"```//~(```_~~/)```)~~(_```//~~/~~/~~//_``_///(```(~/(_```(~~/```",
"```/~/(```_~~~)```(~~/EP//~!!!!!Q~~~~~RZG~//~(```)~~~_```(~~~```",
"``_/~~)```_(/~_```(/!ApI/!!!!!!!!!!Q!~~KghCW/)```_~~~_```)~~/```",
"___))()___))(()____KkkZEEEE!QQ~!!/~!!!Q~~TVbI(____/((____)))))__",
"(~(```_~/~(```)//!NjFYYTEEE!~WIGZVCZP!!!~/(WLW~//)```(//~_```(~/",
"~~(```_~/~)```_/RkbRTUTEE!!Py<%+Oooo$yQ!!/~(_(~~~_```)~~/_```/~~",
"~~(````~/~)```_IkVPTTTE!!!!u         Xl/Q!~!/_(/~_```)~//_```//~",
"(())__)()))___ElSLLYYRQ!Q!Y=  .    .  *L^!!!!^/)()))_)()))___(()",
"```~~~(```_~~~GSLLLYRW!!Q~Vo           y^!!!!!E(((~~/_```(~~/```",
"```/~/(```)~~TKLLIYREQ!Q!~i            #L^!!!!E!~~~~~_```(~~~```",
"```~~~(```)/QIKLLYTRE!!!!~3     .       s/^!!!!!W!~~/_```(~~/```",
")))____))())RJPPUREE!!!!/T*         .   <!/!!!!!WQ!(__))))__)))(",
"~~(```_~~~(_PJUPUREE!!!^/G+             $P//!!!!!E!/`(~~~````(~~",
"~~(```_/~~)!JPUURRE!!!!//K4O          .2D!!//!!!!E!/`(//~_```(~/",
"~~(```_/~~(YJUUYRREE!!^!~~Wn1X      X$pE_(//!!!!!!TS_(~~/_```/~~",
")__))())__~PKITTRREE~QQ~/~((Wb<.   O2Z((/(///!!!~Te=G`____(())__",
"```/~~(```WG8wDRRRQ!Q^__((///_Eh%X,pI__/(///(//!I0..e_```(~~~```",
"``_/~~(``_Ut  %rDE!E)```_(/((/(_Kwn/``(((///////g  .:I```(~~~```",
"```/~~(``(Z%    @wR(````_//(/(/(_//_``_(/_/////(AO .%N```)~~/```",
"(((_`__))Wp      ;Y_````_((//(/((((_```_((//~(~(I#  %k(((__`_)((",
"~~(```_~~I<     .3R_````)//(/((((((`````(///^~//E: .$f~~~````(~~",
"~~(````~~D#     .5E/````(///((//((~`````_//~~/~/~2  #pQ~~_```(~~",
"///```_(~B+      5E!/(`_(//((/_(((/_````((/^~//~~2 X#eQ(~````(~~",
"_`)((/)`_A#      4W~!~~~/////(((((~(___(((//!/!/!3 o#u)``((/(_``",
"```/~~(``L,      2R!~~~~~//(/(/((^~(((((/(/~~//~!1 o%f```(~~~```",
"```/~~(``R9X     :T~!~~~~////(/((/~((((////!~~//T= X%M```(~~~```",
"``_//~(``~lO     #K~!~!~~~/////((/^(/((////~////I= X;K```(//(```",
"(((_``_(/~G;     oC~~!~~~~~//(//_EM!(/(/(/////~~~G5o5Q//(_``_(/(",
"~~(````~~~Ru.    @MQ~~!~~~~////_K4@wH((//////~!~~~WgV_~/~````(~~",
"~~(```_~~~QF-  O5CWEW!~!~~/~//!n*  X$yL(///~~Q!/~~Q!_(~~~_```/~~",
"//(```_(^((Rv#:vYEEW!WW~!~~/(Ue+      %gR/~Q!~~~~~!Q__//(_```(//",
"``_(~/(```_WUmGRRRRRW!QQQ~^Qn:.        X>VQ!/!//~~QQ(_```)~//_``",
"```~~~(```_~YUTYTTRREE!~Q!K7O         .@ 7~~~!~!QQQQ~_```(~~/```",
"```~~~(```_~EIUTRRTRRREQ~/b            o i/~/~/!!!W~~_```(~~(```",
"`__)(((`_`_(~UITTTTRREEEW~H@     .      oM(!!~!!!E!(()`__)(/(__`",
"/~(```_(~/)``!LYYRRYRRRRRQ!5            =I~~!!!!E!_``)~//_```(~~",
"~~(```_~~~(``)YYYTYRTRRYRR!nX       .   y!!~!!!EE/```(~~/````(~~",
"~~(```_(~~)```WLYYTRTTRRRRRI:          #G~!!!!QELW_``)~~~_```/~~",
")(_____((()_)(~JvIYYYTTYRRRQl          yQQ!Q!QTJKTQ^))(()_`__)((",
"```/~~(```)~QWWRdaJYYRRYRRRRK>+O+O+#=5lIEEQQRLDHYRTRW_```)~~/```",
"```~~~(```)~QWQQUkqmIYUYYYRRRFDZDZDGLRERRRRFxvZLRRRRW)```(~~/_``",
"```~~~(```_~QEQQTKvquVLYURIPURRRRRRRRRRYRFuwamGUEERE~_```(~~~```",
"_))))())___)_(~WYLSna66rzLPLPPPUYUYUUIYPZtqjvAKUEQ~((__)_)())___",
"~~(```_(~~)```)QWIIGNlq1:kKPPUUUYRYRYLBa9rkMGLIR!(```)~~/_```(~~",
"~//```_/~~)```_//!~~TJNht8aMFJPUILGBxu0rhmHR!~!~^)```)~~/````(~~",
"~~/```_~~~(```_~~~_``_!TLHDDZZBBBBBmBADLY!)``_~/~)```)~~~_```/~~",
"))___)__))))))))))))))__))(((^^^^^^(())))))())__))))__))___())))",
"``_/~~(```_/~~_```)~~~````(~~~````/~~/````~~~)```(/~(_```(/~/```",
"```/~~(```_~~~)```)~~~_```/~~(````/^~(```_~~~)```_~~~_```(~~/_``",
"```/~~(```_~~~_```)~~/_```(~~(_```/^~(```_~(~(```_/~~)```(~~/_``",
")))___)))))____((()`___)))___))(((___)))()___)()(____)(())___())",
"~~(````~~~)```_~~~_```(~~~````(~~(````~~~(```_~~~)```)~~/_```(~~",
"~~(```_/~~)```_~~~_```(~~~````(~~(````~~~(```_~~~_```)~~/````(~~",
"///```_/~~(```_~//_```(~~~_```(/~(```_///(```_(~~)```)~(~_```(/~",
"___((()_`_)()(____)(()_`__))((____((((`___)((____)()(____)(((`__"
};
