/* XPM */
static char *edeb70966f6f43a4ff043294bf7860439xfWQJwVkyNUXFmk[] = {
/* columns rows colors chars-per-pixel */
"64 64 246 2 ",
"   c #010102",
".  c #0A0605",
"X  c #060609",
"o  c #09080B",
"O  c #0B0B0C",
"+  c #170B09",
"@  c #130C0B",
"#  c #19110D",
"$  c #0D0E11",
"%  c #150E11",
"&  c #0F1113",
"*  c #0F151D",
"=  c #131315",
"-  c #1B1413",
";  c #15161A",
":  c #18181A",
">  c #1B1B1C",
",  c #26130D",
"<  c #261816",
"1  c #2C1B14",
"2  c #231B1C",
"3  c #371E1A",
"4  c #27201D",
"5  c #34221C",
"6  c #39251C",
"7  c #131921",
"8  c #1C1D22",
"9  c #261E20",
"0  c #1E2226",
"q  c #1E2931",
"w  c #232324",
"e  c #24252A",
"r  c #2A2728",
"t  c #262A2C",
"y  c #2A2A2C",
"u  c #382825",
"i  c #3C312F",
"p  c #242B33",
"a  c #2B2D32",
"s  c #362E31",
"d  c #2B3136",
"f  c #2D333A",
"g  c #333334",
"h  c #3B3333",
"j  c #33353B",
"k  c #383B3C",
"l  c #49291C",
"z  c #482926",
"x  c #432D2A",
"c  c #532D2B",
"v  c #483529",
"b  c #4B342C",
"n  c #53332D",
"m  c #59372D",
"M  c #423533",
"N  c #483A36",
"B  c #593B35",
"V  c #673A36",
"C  c #623C35",
"Z  c #6D3835",
"A  c #3C413D",
"S  c #59402B",
"D  c #43433C",
"F  c #4B423C",
"G  c #58453A",
"H  c #64433B",
"J  c #69443B",
"K  c #67483A",
"L  c #72483D",
"P  c #2E3C45",
"I  c #333C46",
"U  c #3B3E43",
"Y  c #453E41",
"T  c #3B4247",
"R  c #3C444C",
"E  c #3D4852",
"W  c #474749",
"Q  c #554A46",
"!  c #5B4C46",
"~  c #5C524D",
"^  c #474E53",
"/  c #4B535A",
"(  c #595657",
")  c #674945",
"_  c #6C4B42",
"`  c #754D45",
"'  c #66554B",
"]  c #755349",
"[  c #775648",
"{  c #7C544B",
"}  c #645A57",
"|  c #6C5C53",
" . c #735B54",
".. c #7D5C53",
"X. c #68605B",
"o. c #77645A",
"O. c #4B5961",
"+. c #545D64",
"@. c #58646B",
"#. c #5B6873",
"$. c #686668",
"%. c #756A66",
"&. c #7B6C63",
"*. c #707171",
"=. c #787878",
"-. c #80363A",
";. c #84584C",
":. c #8F5051",
">. c #825D53",
",. c #8B5A51",
"<. c #856254",
"1. c #8E6754",
"2. c #88655A",
"3. c #96675A",
"4. c #A36D5D",
"5. c #9F5B62",
"6. c #8A6D65",
"7. c #986E65",
"8. c #87776D",
"9. c #957164",
"0. c #9A7668",
"q. c #877973",
"w. c #9A7C74",
"e. c #AC746B",
"r. c #A77869",
"t. c #A57C73",
"y. c #B88E5F",
"u. c #9E866A",
"i. c #8E827A",
"p. c #94857B",
"a. c #A98576",
"s. c #B68776",
"d. c #B28F72",
"f. c #BB8C7B",
"g. c #C29A67",
"h. c #C28C7D",
"j. c #C9A97A",
"k. c #D3B07C",
"l. c #E0BB79",
"z. c #6E7E88",
"x. c #73818B",
"c. c #788894",
"v. c #978C85",
"b. c #9E958B",
"n. c #8F9092",
"m. c #A98981",
"M. c #B88A84",
"N. c #A49589",
"B. c #B89489",
"V. c #A59A95",
"C. c #BD9B92",
"Z. c #B9A98C",
"A. c #A8A19B",
"S. c #BAA699",
"D. c #AEA8A3",
"F. c #B5ABA5",
"G. c #BBB3AC",
"H. c #BBB5B2",
"J. c #C49787",
"K. c #C89486",
"L. c #CA9C8C",
"P. c #C69D93",
"I. c #C9A489",
"U. c #D4AC87",
"Y. c #CDB189",
"T. c #D7B88A",
"R. c #C9A597",
"E. c #D6A697",
"W. c #D6AB9A",
"Q. c #DCAD9C",
"!. c #CCB898",
"~. c #D6BA98",
"^. c #E0BC87",
"/. c #E2B19F",
"(. c #CBADA6",
"). c #D5ADA4",
"_. c #CAB7A7",
"`. c #D8B6A5",
"'. c #C4BCB6",
"]. c #DABAB4",
"[. c #E3B3A2",
"{. c #E7B4A6",
"}. c #EABBAB",
"|. c #E6BCB2",
" X c #DBC299",
".X c #E1C495",
"XX c #E5C997",
"oX c #CDC1AC",
"OX c #D4C4AB",
"+X c #D9C7A8",
"@X c #CBC3BB",
"#X c #D4C5B5",
"$X c #DCCDB5",
"%X c #D4CCBC",
"&X c #DBCEBB",
"*X c #DCD2BB",
"=X c #E5CBA4",
"-X c #E2CDAC",
";X c #E3D1AE",
":X c #E7C5B8",
">X c #F4C8BA",
",X c #E3D4B9",
"<X c #CBC5C3",
"1X c #CCCAC8",
"2X c #D7CBC4",
"3X c #D4CDC5",
"4X c #D2CECB",
"5X c #DCD2C4",
"6X c #D4D1CD",
"7X c #DBD6C9",
"8X c #DBD4CB",
"9X c #CFCFD2",
"0X c #D5D4D3",
"qX c #DAD6D4",
"wX c #DCDAD5",
"eX c #D8D7D9",
"rX c #DDDCDB",
"tX c #ECCEC4",
"yX c #F4CBC2",
"uX c #E6D8C7",
"iX c #E3DACB",
"pX c #F6D5C8",
"aX c #E3DCD4",
"sX c #E8DAD4",
"dX c #E2DEDC",
"fX c #FCDDD3",
"gX c #DEE0DC",
"hX c #F1E1CB",
"jX c #E9E4D7",
"kX c #E3E1DD",
"lX c #EAE4DC",
"zX c #FDE5D9",
"xX c #DEDEE0",
"cX c #E1DFE1",
"vX c #DFE1E1",
"bX c #E4E3E2",
"nX c #E5E5E2",
"mX c #E6E6E5",
"MX c #E9E6E4",
"NX c #EAE9E5",
"BX c #E9E9E6",
"VX c #E8E8E7",
"CX c #EAEAE9",
"ZX c #ECECEA",
"AX c #F1ECE8",
"SX c #F1F0EC",
/* pixels */
"mXeXbXvXmXZXZXjXjXmXvXvXmXCXbXmXmXZXNXmXmXnXmXNXCXmXmXZXvXgX%XrXmXnXrXrXgXvXvXvXgXY.oXnXCXbXvXeXxX_.eX9XG.<XuXdXcXdXrXkXNXnXnXCX",
"bXrXmXvXxXmXZXCXlX%XqXgXrXvXbXvXmXnXNXZXZXmXmXbXlXCXmXmXgXiXVXmXbXgXrXvXrXvXvXvXiX_.vXnXvXxXxXeXxXeX1X'.,X*XeXeXcXcXeXkXnXkXZXCX",
"bX@XxXbXbXmXCXmXrX6X*XvXrXgXbXbXkXmXnXVXZXnXmXnXgXmXvXvXwXkXNXVXjXrXvXvXgXmXVXmX!.CXbXmXvXrXxXeX0XS.6XsXmXbXdXdXrXrX6XqXnXkXmXZX",
"rXcXxXCXbXmXmXbXeX0X3X_.%X0X6XrXVXVXnXNXmXZXgXgXnXgXnXrXVXnXVX8XrXrXvXVXVXnXmXuXvXmXCXbXvXvX0X9XoXiXgXVXkXmXkXkXmXrXeXeXkXCXNXmX",
"dXMXbXvXmXbXmXrXeX9X4X0X3X8XeXlXgXVXkXNXkXkXgXgXnXgXkXNXmXkXkXgXNXmXVXNXZXmXmXlXCXNXVXrXrXrXwXOXgXvXxXcXrXcXxXcXmXxXvXkXkXjXNXgX",
"mX,XkXmXvXbXcXrXgX0X0XkXqXwX8XrXgXgXkXgXmXrXkX+XnX8XmXnXkXVXNXnXmXmXNXSXZXVXmXlXCXbXxXxXrX8X#XrXbXxXaXdXnXdXbXbXbXmXrXvXmXVXeXgX",
"xXiXaXeXrXdXqXeXrXrXrXeXeXmXqX,X;X X*XgX8XaXkXNXnXVXnXkXlXZXAXVXmXNXlXZXNXNX,XNXmXbXnX*X!.wXgXbXrXvXeXbXkXeXkXrXbXbXbXbXbXmXkX-X",
"rXgX+XbXeXcXcXmXmXCXeXkXmXNXZXkXjX-X+X+X*XkXmXnXnX@XH.N.b.F.F.A.V.i.=.i.p.p.p.V.S.H.'.6XaXkXkXkXbXgX0XbXbXdXeXbXmXrXvXrXrXkXdXmX",
"iXY.uX#XdXcXkXmXbXrXrXmXZXZXSXZX,X!.jXmXmXmXNXwXA.i.&.i.i.&.8.p.i.} X.( } %.| ~ ' ! } q.D.1XgXgXbXbXqXbXvXrXdXxXbXaX&X6XdXdXkXMX",
"OXwXvX!.$X!.!.5XvXkXMXZXZXSXZXZX=XwXNXMXiXkXeXF.p.| &.%.%.o.o.X.| | ~ ~ W N M j k s h j ~ i.D.@XmXMX5X$XT. XaXwXiXgXeX!.sXwXmXkX",
"0XcXbXaX-XU.Y. X.XNXlXZXZXlXlX;XOXlXjXgXNXrXF.i.8.o.} ! Q Q N Q N Q ~ Q Q N s r M Y s y N G o.p.'.mXbXrXrXrXbXrX8XwXdX_.#XkXkXwX",
"+X~.T.T.T.j.U.T..X;XT.;XlXhXuXmXwXwXbXrX6XH.i.8.| G F F N g Q N N N ! F h r r h i s N u i M N 1XV.<XmXbXbXnXbXmXbXrXeXiX8XkXkXlX",
"dXsXj.I.*XlX,X~.T.T..X;X$XjXlXlX*XeXrX1Xp.=.&.v h G  .' 2.0.a.t.u.8.2.Q ) <.9.0.7.6.<.' b 9 2 M o.V.eXbXmXdXmXCXvXgXeX*XrXdXeXkX",
"dXsX%XMXkXmXCXNX,X;XaXT..X X+X5X$X%XeXN.i.&.o.r N N.R.W.Q.Q.W.`.Q.).P.u.a.J.I.L.K.f.s.r.3.N 4 u G ' D.bXbXVXCXmXNXgXeX#XwXdXwXgX",
"OX X8XlXbXkXmXlXMXlXjXjX XY.Y.T.*XgX6Xb.p.o.! M 0.:XyX:X[././././.W.E.I.R.E.J.K.s.h.s.d.a. .u & 4 ! o.<XCXmXvXrXvXrXwXoXqXwXwXkX",
"%X6XwXOXkXNXlXNXZXNXZXsX-XY.T.j.;X8X@Xi.u.| G v S.>X>X}.{.[./././.W.E.E.W.I.f.K.f.s.f.s.a.9.v - 4 u &.1XnXrXxXrX9XrXR.6X0XwXkXgX",
"5XoX7XwXiXlXMXlXNXmXmXMX X+X+XT.^.:X1XV.| F ! | W.>X>X:X/./.Q././.E.W.E.E.L.I.J.h.s.s.s.a.0.B 2 = 4 | 1XNXrXqX0X9X6X%XwX0XkXmXkX",
"8XoXgXjXlXhXlXZXZXZXlX$XbXgXwXiXaX Xd.p.' D Q | (.:X>X}././.Q./.~.Q.W.W.P.L.L.J.f.s.s.s.r.0...2 = > W <XlXkXrX9XeX0X#XgXqXwXgX0X",
"OX5X%XiXjXhXjXuXuXzXbXiXgXbXcXcX=X&XR.8.! W F o.(.>X>X|.{./.{.[.Q.Q.E.E.L.L.E.L.J.f.s.7.r.r.9.1 O > i <XsXkXeX0X9X8X7XnXwX6XwX0X",
"wX XoX*XiXNXlXAXhX;X~.bXbXkXbXMXMXsX@X8.! ( N o.:X>X>X|.:X[.[.~.Q.W.E.R.K.L.J.B.f.a.a.r.r.9.9.b @ = g 6XlXMX0X6XS.+XgXlXwX6X0X<X",
"aXiX+XT. X=XVXVXcXqXuXmXmXmXMXsXNXMX@XV.! M W w.tXyXyX].P.B.C.P.R.R.J.J.M.B.f.t.2.) B G ) 2.6.b $ O u @XbX0X<X_.0X@XwX0X1X0X1X<X",
"rXnXaX,X=X=XuXwXwXaXlXmXbXmXdXjXNXNX<Xv.' i j (.fXyX(. .Q N h N 6.t.t.P.e.7.2.b - < u x v h ' i O @ w n.0X8XaXdX4X1X<X4X4X1X1X_.",
"mX8XwXiXjXjX$X*X+XdXNXmXdXbXdXbXNXNX<Xb.%.F w v.pXS.8.2.7.6.....r.t.M.(.t.L C c 6 c n C ] K ' b O = r v.eXiXkXeX0X6X4X4X4X4X_.oX",
"wXaXgXgX5X*XuX$X~.dXlXlXkXkXMXMXrX6X<XD.q.G > 6.pX(.(.P.7.] c z c 0.R.|.L.3.c 3 u % o i z ` o.' = @ i G.<XOXdXeXeX4XeX1X<X#XOX8X",
"$XkXkXkXwX%X%X&X~.rXrXlXkXaX4X2XqX<XA.a.F.q.h &.pXyX).2.n.a 2 %.Z 3.L.}.Q.e.m c K 6 Q ) B _ 2. .> , c '.6X$XeX0X0X4X6X#XY.qXnXnX",
"kXkXkXaXiX5X7XiXjX%XqXkX0X0XqXqX_.j.Z.D.G.:.6.v.fXyXP.(.C.V.6.:.` 0.}.>XQ.h.3.Z m Z C L { <.3.o.x z Z '.3X#X4XeX4XoXoXgXkXnXVXCX",
"MXrXkX8X7X3X7X*X2X3X5X@XwX6XwXwX;X X XY.F.e.].(.zX>X).).R.a.3.,.r.).>X}./.f.e.4.,.L L ;.1.9.0...n V 8.2XoX'.4X@X1XkXmXZXNXCXVXCX",
"mXnXkXwXwX*X@XR.dX5XkX8X3X5X&XsX+XjXkX5X].).yXB.fXpX:XW.J.s.e.h.Q.>X}.}.[.h.r.9.e.e.e.4.e.r.0.| H _ '.2X_.6X#X+XrXMXSXZXZXSXZXmX",
"kXmXwXgXwX%X7X5X5X5XqXwXwX8X8X+XkXjXkXZXkX5XE.tXzXfX>X=XQ.U.E./.Q.{.|.{./.K.t.e.3.e.e.e.s.a.0.' z ) H.a.'.!.+XkXmXmXCXZXZXZXZXVX",
"gXmXnXnX6X3X_.5XT.rXdX&XwXiX+XjXlXrXkXmXdXgXE.P.fXzXzX>X}.{./.Q.h.>XyX>XW.K.r.7.1.4.y.s.s.a.w.m ] B u.D.G.3XrXmXNXmXZXAXNXVXnXvX",
"nXmXMXlX8X0X`.aXU.kXuX&XT.lXmXmXVXmXkXwXwXwXuX{.`.zXzXpX>X}./.U.s.{.K.K.K.7.V :.,.4.r.u.r.0.0.! K 5 ! i.H.@XeXlXkXbXmXmXlXnXrX5X",
"nXmXmXkXeX!. X%Xj.MX,XXXk..XeXAXgXgXgX6XwXwXdXzX:XzXAXzX>X>XQ.h.h.M.5.m.7.;.l c :.4.1.4.0.3.2.] b K v v 8.N.H.F.OX$XjXuXkXkXrX6X",
"bXmXrXmXuXj.uXY._.dX.XT.~.dXmXdX6XwXdXwXdX6X0XjXfXtXzXzXyX`.I.J.E.K.t.w.5.2.V H [ >.,.<.1.<.| < 2 6 6 v G ' p.F.<XuX=XAXNXnXqX@X",
"XXNX,X+X,X,XaXk.lXkXT.uXNXMXjX5XrX5XkXwX6X0XH.S.m.p.zXpXtX`.I.B.M.P.P.P.5.5.:.2.{ K K [ ;...G O # 1 v v S S o.8.V.7XwXkXwX7XwXdX",
"T.*XdXmXlXmXlX~.kXjXk.NXAXZXCXZXkXmXwXwXrX4Xi.A.i.! tXyXyX`.a.B.(.).t.e.e.-.V c l z K [ <.[ .     @ , 1 6 v l v | b.8.b.rXmXeXrX",
"kXmXcXmXmXmXnX#X0XwX+XZXZXCXZXkXmXNXbXbX0Xo.D.o.G F D.tX,X|.a.a.P.M.M.5.5.:.-.L ` ;.;.<...'         # , # < 5 v G o.' H.cXrXeXnX",
"mXrXbXmXmXiXNX6X6X XMXNXmXNXZXZXMXkXdX<Xd.A.i.b v u ! tX].].R.R.`.].].M.5.5.:.` [ 1.;.[ ] :         @ @ + + 1 l v K 8.H.eXrXeXmX",
"bXeXxXmXgXrX0XoXj.lXNXNXZXZXZXmXNXdX3X'.o.&.i.h N u M _.tXtX).`.).E.K.4.Z Z Z ` ,.>.L [ B         . O @ . # 5 , 5 v v m V.rXdXrX",
"rXeXbXmX8XeX~.*XNXVXNXNXNXZXZXMX*XvXgX8Xi.' B N B u < AXF.].(.].(.L.P.M.r.,.5.2.9...K B <               . o . # . v 6 u i.0XbXeX",
"rXrXkXrX6Xk.,XNXmXbXNXNXZXZXmX$X*X8XvXgX4XV.%. .b 3 + 7XtXv.p.B.w.a.B.9.>.J _ ) ] n u - 3               O + # # , 2 , u V.eXmX3X",
"4X<X Xk.k. XkXkXkXlXVXZXZXMXkXOXkX+XkXNXwXV.i.X.' F & V.zX(.6.w.....] ..V u u 3 u 1 % z z                 @ 1 + . . 5 1 F.wXwXqX",
"6X%X+XjXAX7XmXkXwXgXnXCXMXNXbXlXdXcX*XbXkXkX'.F.d.= j } zXpXS.q.N M 3 i 3 % % @ O   9 n z                   . @ . @ = , @XeXwX6X",
"kXNXmXmXgXVXmXmXgXkXNXlXdXkXdXkX8XmX;XbXNXCX$XZ.g : z x zXpX|.].w.u % - % o o $   % c n c                   # # .   . # <XeXwXwX",
"nXmXCXVXnXmXgXkXwXiXmXkX3XT.kXwXnXMXjXlXSX X XH.w Q u., fXpX|.].].(.n % o % - 9 x c B V n     O   . @           . + @ i 6X0XrXrX",
"nXVXmXnXmXmXVXnXgX!.uX1X5X XrXkXMX;XuXhX=XS.y ( e =.0.. ].:X|.$X].tX].(.w.t...B B B B V B .   : $ - u @ o O . . w } D.wXeXrXkXkX",
"nXZXgXmXZXVXnX7Xy.y.j.2X$XgXkXkX=XdX<X^ y y t 0 8 < 1 @ 9.P.C.R.(.].2X(.M.m.2.) B C V C V +   9 a     @ . .   r N.wXwXeXqXeX8XjX",
"VXVXmXmXZXmXwXT.g.!.#X5XrXgXiXb.$.Q k t : w A y . 4 2 @ b t.m.B.M.M.C.].C.C.>.H H J J C C , . j i #           o > i n.@XY.oXdXdX",
"VXZXZXAXMXwX,Xy.j.gXgX6XV.*.W ^ g g 8 w r ; ^ j   5 u @ 1 [ 0.t.w.w.w.B.(.C.{ ) ) ` ) _ J 3 # x l ,     $       O = ; 0 > $.qXrX",
"ZXZXSXZXuXjX X;XjXA.v./ $.R k W p w = 8 y & W f   5 N # , b ..6.7.7.7.7.t.w.{ ` ] L J K J z , / m +     $ $       X X w > = t : ",
"ZXZXZX;XNXuXZ.=.*.( ( T W U a g g g $ e 2 = W y   < F @ - 1 n ..2.6.6.6.>.{ ] ` [ L C J J c 3 v.S o     $ $ X       X : - $ T 4 ",
"ZXnX,XZXiXA.$.( ^ ^ ^ k k k g j a = 8 y ; 0 E j   1 W # + 5 u S ;.2.6.>.>...{ { [ K C J J m 5 ' G @     o $ o       O $ & O t = ",
",X XAXlX( $.^ / T W ^ A A j W g w ; 9 t 8 0 j E o , <., . u 6 x K >.>.>.>...{ ..` C V J Z m l | S 6     X $ &       O = w @ 2 : ",
"NXwXnXp.=./ U R U U W R ^ a g = % 9 * 8 e a W o :   ;.l # @ z l B ` <.<.>.>.>..._ m C _ L H , w G S     X = &   O O & O > : > > ",
"gXwX*X/ z./ j U k I T T T w y : : > O e e a 0   &   = 8.6   . x x H ..{ { { { { K C L { ` n   e F G     X ; &   X . = O & = w t ",
"lXuXV.d *./ T I k T j U g > : = o : > e a a X         X.( .     u n ` ` ` ` { ] Z _ ` ;.)     g D K O X   * ;     O & & . O O r ",
"-X,Xc.k @.@.T j R W a t 8 : 0 : = > 8 e a a 8   t       ( k       # C K _ ` { ] { ;.{ c       A G K # X     = X X O O = O & . & ",
"iX1Xn.U @./ P R E j w e O = > ; ; = 8 e d a e X d p $   D *.          . 5 H ` { [ ) @         T } u .   X o   O & O > & & X X O ",
"mX+.c.P z.I ^ T p j w e : = : : e > 8 t t y 8 ; 7 I p   h 9               O   X X             W ' u   e       O & & & O X X   X ",
"1X@.c.p z.E R P j P U e O O > > t ; > 0 d t d     E ^ X.~ g o             $ X & X             ^ G [ >       * O O O @ O O X     ",
"z.@.c.q x.E E R E U g % $ t O > p w e 8 y e R     f R * > %.N             X X $               P i &         * &   & O O O O O   ",
"$.z.z.q / #.f E p T t = O & O = d w t = d f ^ $   O #./ ( @ 6             O X o $           X q < q         & 0 . & X O O O & O ",
"E z.#.P 7 c.$ @.@.T e = o X e & f p a > 0 P O.0   X #./ T . O :           X   $ X   X X     s q.4 d           * r X O O O & O X ",
"I #.z.#.o c.& O.P q 0 $ O O = & 0 f f a & R #./   X t j e t $ ^ >           & *   o $ X     6XA g &           O A   X O O O X O ",
"P E c.+.o ^ o +.d d 0 & & = O a ; R f g O d E #.;   $ @.a } 2 =.V.          & O X $ = X   : 2 g $.@           X   . X O O X   X."
};
