/* XPM */
static char *_9f85ea6e7114fd986763d953f2be901Wi5CSnGmI3uxVZdI[] = {
/* columns rows colors chars-per-pixel */
"64 64 244 2 ",
"   c black",
".  c #010101",
"X  c #020202",
"o  c gray1",
"O  c #040404",
"+  c gray2",
"@  c #070707",
"#  c #090909",
"$  c gray4",
"%  c #0B0B0B",
"&  c #0C0C0C",
"*  c gray5",
"=  c #0E0E0E",
"-  c gray6",
";  c #101010",
":  c gray7",
">  c #131313",
",  c #151515",
"<  c gray9",
"1  c #181818",
"2  c #191919",
"3  c gray10",
"4  c #1B1B1B",
"5  c gray11",
"6  c #1D1D1D",
"7  c #1E1E1E",
"8  c #202020",
"9  c gray13",
"0  c #222222",
"q  c #232323",
"w  c gray14",
"e  c #252525",
"r  c #272727",
"t  c #282828",
"y  c gray16",
"u  c #2A2A2A",
"i  c gray17",
"p  c #2C2C2C",
"a  c #2D2D2D",
"s  c gray18",
"d  c #313131",
"f  c #323232",
"g  c gray20",
"h  c #343434",
"j  c #393939",
"k  c #3A3A3A",
"l  c #3C3C3C",
"z  c gray24",
"x  c #3F3F3F",
"c  c gray25",
"v  c #414141",
"b  c #444444",
"n  c gray28",
"m  c #484848",
"M  c #494949",
"N  c gray29",
"B  c #4B4B4B",
"V  c #4C4C4C",
"C  c gray30",
"Z  c #4E4E4E",
"A  c #505050",
"S  c #515151",
"D  c #535353",
"F  c gray33",
"G  c #555555",
"H  c #565656",
"J  c gray34",
"K  c #585858",
"L  c gray35",
"P  c #5A5A5A",
"I  c #5B5B5B",
"U  c #5D5D5D",
"Y  c gray37",
"T  c #5F5F5F",
"R  c #606060",
"E  c #626262",
"W  c #646464",
"Q  c #656565",
"!  c DimGray",
"~  c #6D6D6D",
"^  c #6F6F6F",
"/  c #717171",
"(  c #727272",
")  c #747474",
"_  c gray46",
"`  c #777777",
"'  c gray47",
"]  c #7C7C7C",
"[  c gray49",
"{  c #7E7E7E",
"}  c #808080",
"|  c #818181",
" . c #848484",
".. c gray52",
"X. c #868686",
"o. c gray53",
"O. c #888888",
"+. c #898989",
"@. c gray54",
"#. c gray55",
"$. c #8E8E8E",
"%. c #909090",
"&. c gray57",
"*. c #929292",
"=. c #939393",
"-. c gray58",
";. c #959595",
":. c gray59",
">. c #979797",
",. c #989898",
"<. c gray60",
"1. c #9A9A9A",
"2. c #9B9B9B",
"3. c gray61",
"4. c #9D9D9D",
"5. c gray62",
"6. c #9F9F9F",
"7. c #A0A0A0",
"8. c gray63",
"9. c #A2A2A2",
"0. c gray64",
"q. c #A4A4A4",
"w. c #A5A5A5",
"e. c gray65",
"r. c #A7A7A7",
"t. c gray66",
"y. c #A9A9A9",
"u. c #AAAAAA",
"i. c gray67",
"p. c #ACACAC",
"a. c gray68",
"s. c #AEAEAE",
"d. c #AFAFAF",
"f. c gray69",
"g. c #B1B1B1",
"h. c #B2B2B2",
"j. c gray70",
"k. c #B4B4B4",
"l. c gray71",
"z. c #B6B6B6",
"x. c #B7B7B7",
"c. c gray72",
"v. c #B9B9B9",
"b. c gray73",
"n. c #BBBBBB",
"m. c #BCBCBC",
"M. c gray74",
"N. c gray",
"B. c gray75",
"V. c #C0C0C0",
"C. c #C1C1C1",
"Z. c gray76",
"A. c #C3C3C3",
"S. c gray77",
"D. c #C5C5C5",
"F. c #C6C6C6",
"G. c gray78",
"H. c #C8C8C8",
"J. c gray79",
"K. c #CACACA",
"L. c #CBCBCB",
"P. c #CCCCCA",
"I. c gray80",
"U. c #CDCDCD",
"Y. c #CFCFCD",
"T. c #CECECE",
"R. c gray81",
"E. c #D0D0CE",
"W. c #D0D0D0",
"Q. c gray82",
"!. c #D2D2D0",
"~. c #D3D3D1",
"^. c #D2D2D2",
"/. c LightGray",
"(. c #D4D4D2",
"). c #D5D5D3",
"_. c gray83",
"`. c #D5D5D5",
"'. c #D6D6D4",
"]. c #D7D7D5",
"[. c gray84",
"{. c #D7D7D7",
"}. c #D8D8D6",
"|. c #D9D9D7",
" X c #D8D8D8",
".X c gray85",
"XX c #DADAD8",
"oX c #DBDBD9",
"OX c #DADADA",
"+X c gray86",
"@X c #DCDCDA",
"#X c #DDDDDB",
"$X c gainsboro",
"%X c #DDDDDD",
"&X c #DEDEDC",
"*X c #DFDFDD",
"=X c gray87",
"-X c #DFDFDF",
";X c #E0E0DE",
":X c #E1E1DF",
">X c gray88",
",X c #E1E1E1",
"<X c #E2E2E0",
"1X c #E3E3E1",
"2X c #E2E2E2",
"3X c gray89",
"4X c #E4E4E2",
"5X c #E5E5E3",
"6X c #E4E4E4",
"7X c gray90",
"8X c #E6E6E6",
"9X c #E7E7E7",
"0X c #E8E8E6",
"qX c #E9E9E7",
"wX c gray91",
"eX c #E9E9E9",
"rX c #EAEAE8",
"tX c #EBEBE9",
"yX c #EAEAEA",
"uX c gray92",
"iX c #ECECEA",
"pX c #EDEDEB",
"aX c #ECECEC",
"sX c gray93",
"dX c #EEEEEC",
"fX c #EFEFED",
"gX c #EEEEEE",
"hX c #EFEFEF",
"jX c gray94",
"kX c #F1F1F1",
"lX c gray95",
"zX c #F3F3F3",
"xX c #F4F4F4",
"cX c gray96",
"vX c #F6F6F6",
"bX c gray97",
"nX c #F8F8F8",
"mX c #F9F9F9",
"MX c gray98",
"NX c #FBFBFB",
"BX c gray99",
"VX c #FDFDFD",
"CX c #FEFEFE",
"ZX c white",
/* pixels */
"VXVXVXVXVXVXVXVXVXVXVXMXMXVXVXVXVXVXVXVXVXVXVXvXMXMXVXVXvXVXVXMXVXVXMXVXVXVXVXVXVXVXVXVXVXVXVXVXVXVXVXVXVXVXVXVXVXVXVXVXVXVXVXVX",
"MXVXVXVXVXVXMXVXMXvXMXVXVXVXVXVXzXVXVXMXVXVXVXVXVXMXvXVXVXMXzXVXVXzXVXVXzXMXVXMXVXVXVXVXVXVXVXVXVXVXVXVXVXVXVXVXVXVXVXVXVXVXVXVX",
"VXVXVXVXVXVXVXVXVXVXVXVXVXVXVXMXVXVXVXvXVXVXMXVXvXVXVXMXVXVXVXVXVXVXVXVXVXVXVXVXVXVXMXVXVXMXMXVXVXVXVXVXVXVXVXVXVXVXVXVXVXVXVXVX",
"VXVXVXVXVXVXVXVXMXVXVXMXMXVXVXVXvXVXVXVXVXMXVXVXMXMXVXVXVXVXVXVXMXVXvXgXVXVXzXVXVXVXVXVXVXVXVXVXVXVXVXVXVXVXVXVXVXVXVXVXVXVXVXVX",
"VXVXVXVXMXVXVXvXVXVXVXVXVXMXMXVXVXvXMXVXVXVXVXMXVXVXVXVXVXVXVXgXVXVXVXVXVXVXMXVXvXVXVXVXVXVXVXMXVXVXVXVXVXVXVXVXVXVXVXVXVXVXVXVX",
"VXMXVXVXVXVXVXMXVXVXVXVXVXMXVXVXVXvXVXVXMXMXVXVXMXMXVXVXvXVXVXMXVXvXVXVXvXvXVXVXVXVXVXVXVXVXVXMXVXVXVXVXVXVXVXVXVXVXVXVXVXVXVXVX",
"VXMXVXVXvXMXMX Xo.#.b.zXgXC.b. XvXVX3X[.MXVXvXvXVXVXzXzXVXVXvXVXvXVXVXzXVXVXVXVXVXVXMXVXVXVXVXVXVXVXVXVXVXVXVXVXVXVXVXVXVXVXVXVX",
"VXVXVXMX[.L.b.%.$ . Z zX3Xz $ R VXp.- - C.MX^ . @.vXp.d @.MXb.n u.MXp.[ uXgX7.b.zXQ.T.6XzX6X6XVXvXvXvXMXVXVXVXVXVXVXVXVXVXVXVXVX",
"VXVXVX3Xu.3.l.u.R Y ) [.uXA > P 3Xj.4 - p.zXR . ^ MX| . R zX%.. ' VXZ - l. X+ z VXP . uX7.. l.Q.+ p.T.4 b.L.u gX@.( MX( S.MXVXMX",
"VXVXVX3Xu.p.L.b.VXVXvXuXC.=XVXT.m.uXC.j.Q.S.C.C.p.gXS.3.C.S.S.<.l.=Xp.[ L.[.@.#.3X%.Y [.p.P m.m.u m.7.4 j.#.$ [.B k  X. p.zXVXVX",
"vXMXMXQ.p.S.=XC.l.j.m.uXQ.zXvXT.6XzX6XzXVX[.VXgX X6X3XvX6XQ.zX=XuXL.vXQ.3XT.gX[.=X3X[.=X=XQ. XQ. XC.uXC.;.C.3XL.3XL.=Xq < L.6XVX",
"VXVXVXL.7.l.b.%.+ 4 A  XgXvX=X[.MXT.Q.6X=XQ.gXT.zXuX=XMXT.VXvXQ.vX=XMX3XMX[.zXgX3XgXzX[.6XvX[.3X3XT.S.j.u.3XgXL.T. XL.B 6 m.VXVX",
"MXvXVXT.p. X=Xb.+ . z 3X6X3X3XuXMX[.zXVXQ.gXzX6XzXQ.=X6XS.zXL.3X[.3XQ.Q.6X=XT. X=X X=X[. X=XT. X=Xj.l.b.L.3X[.3X6XQ.6X3XVXzXzXVX",
"VXMXMXl.@.l.b.3.C.b.b.VXMX3X[.zX3XL.3X3XT.VX[.Q.MX[.VX3XvX6X[.VX XzX XvX=XvX6XuX6X X=X3X=X X=X[.L.L.[.b.[.6XL.6X[.uXl.h q gXVXVX",
"VXMXVXm.<.L.Q.C.3XVXuX[.6XuX3X6X XuXMX6X6XvX=XuX[.T.uXS.uXQ. X3XQ.=X[.uXT. XuX[.=X X=X=X X X[.T.C.[.6Xj.S. X XQ.[.Q.T.d e  XVXVX",
"VXzXVXC.%.C.C.l.Y v | vXVX[.6XvXL.uX3XS.gX3X=XzX=XzXgXuXMX=XvX=XgXgXuX6XgX XzX=X6X=X3X X=X XS.[.[.Q.Q.l.3X[.6X=X X=X=XT.VXVXgXVX",
"VXVXVXm.e.b.L.e.4 . u vX3X[.zXvX3XVX3X=XMXQ.gX3XQ.uXQ.3XQ.=X=XQ.1X@X:X).:X].@X).:X@X@X|.).).).).=X X Xm.=X=X X=X[.3Xb.n Q uXVXVX",
"MXvXMXm.p.L.Q.p.) ^ ' zX6X XvX XQ.gX[.=XzX XvXuX6XMX3XvX3XzXuXuXkXtXqXtXqXtXtXqX@X@X|.|.|.|.|.|. X XL.C.=X=X=X X3X Xl.. u zXVXvX",
"VXVXVXm.j.S.C.3.uXVXVXVX6X6XVX[.zXvX=XgX3X X=XQ.=X X[.3XQ.3XT.3X|.@XE.:X).:X).|.@X@X|.|.|.|.|.|.=X Xb.T.=X X=X=XQ.=X[.3XMXMXMXVX",
"vXvXzXj.p.L.S.e.e.7.u.uXT.Q.gXT.6X=X XvX=XgXgX3XMX6XvXgXgXzX6XvX1XqX:XtX1XqX:X1X|.@X|.@X|.|.@X@X X=Xp. X=X[.=X X6X Xu.k ) VXVXVX",
"VXVXMXl.b.Q.Q.b.v . < 6XzXvXvXgXVX3X6XMX[.uX=X[.6XL.6XL.3XQ.Q.=X;XoX:X|.:X|.@X).|.@X|.@X@X@X@X@X X[.p.3X=XQ.=X X X6X<.- Z zXVXvX",
"VXVXgX3.7.l.l.e.A > u [.T.6X XL.uXL.3XgX XzXuXgXvX3XVX3XVX6XzXgXqX:XqXoXtX|.:X@X@X@X@X@X@X@X@X@X XQ.m.=X=XQ.3X XL.uXT.=XVXMXMXVX",
"VXVXzXu.j.L.Q.L. XuX3XVX=XVXMX6XVX XvX6X=X3X[.=X[.=X=X[.3XQ.3X[.:X:X:X@X:X@X@X|.@X@X:X@X:X@X@X|.=XL.T.[. X[.3X[.6X3X7.k @.VXVXVX",
"MXVXzX3.7.b.m.l.S.gX3X X XuX=X6XvXT.vX3X6XgX3XMX=XvX=XgX3X6XgX=X:X:X|.:X|.0X@X:X;X@X@X:X@X@X@X|.=XS.=X[. X[.3X[.T.uX) - Q gXVXzX",
"VXVXzX7.l.Q.L. X) > q  X3XVX6X6XuX=XzXQ.vX X6XgX XuX XzX[.uX X6X:X:X;X;X;X;X;X;X:X@X:X1X1X@X@X:XQ.m. X3X[. X X=X X=X=X XVXVXVXMX",
"VXVXzXe.j.C.p.b.R + . l.3XgXT.vX6X6XgX XvX XuX6X=X3X X6X X=X X=X;X:X;X;X;X;X;X;X:X@X@X1X:X@X|.:XQ.C. X=XQ.=X[.=X6XT.o.Z 7.gXVXVX",
"vXVXzXp.C.Q.m.C.p.b.7.=XuXvXQ.vX XgXuX=XzX XgX=XgXuXgX3XuX3XuX3X;X;X;X;X;X;X;X;X:X@X@X:X:X@X;X:XT.S. X=X[. X[. X[.6X! $ <.VXVXzX",
"MXVXzXu.m.S.j.b.[.VXMXgX3XvX=XuXQ.zX=X3XgX XgX[.uX X6XT.uXQ.3XQ.;X;X;X;X;X;X;X;X:X@X@X:X:X@X@X:XL.L. X X X X X X[.6X3XQ.MXMXVXVX",
"VXVXgX7.l.L.l.m.%.P G p.gXuX=XvXQ.MX=XuX6X3XgX[.zX6XzX XvX=XzX3X;X;X;X;X;X;X;X;X:X@X@X@X@X:X=X|.L.[.[. X=X X X=X X X) v L.VXzXVX",
"VXVX6X3.l.T.C.T.[ . . %.VX6X3XVX XvX=XgX6X6X6X3X3X X3X[.3X X=X X;X;X;X;X;X;X;X;X:X:X:X@X:X:X@X).S. X X X=X[.=X X X=XB . j.VXvXVX",
"VXVX6X<.p.C.j.b.p.) [ l.vX=X X6X=XzX XgX=XgX XuX3X6X3XgX3XuX3XuX;X;X;X;X;X;X;X;X@X:X:X@X:X:X XE.C.3X[.[.3X[.=X X6X X6XzXVXvXVXVX",
"MXMXuX7.m.Q.C.T. XMXVX=XvXuXgXgX3X6X[.uXQ.gXQ.gX[.3X[.gXQ.uX X6X;X;X;X;X;X;X;X;X:X1X:X@X:X:X|.P.C.3XQ.[.=X[. X X[.L.P p L.VXvXMX",
"VXvX6X<.l.C.u.L.<.| o.e.gX[.6X6X3XgX3XzX=XgXuXzX=XuX X6X6X X6X X:X:X3X=X3X3X=X3X=X6X6X=X=X3X XL.[.[. X=X=X=X X X3XQ.B u L.VXVXVX",
"VXVXuXe.C.T.j.T.7.. . | VX3XvX=X3X6X3X6X=X3X=X6X3X6X3X3X6X=X6X=X:X3X=X3X3X=X=X3X X3X3X X=X3X XS.Q.[. X X=X X X[. X3X3XMXVXzXVXuX",
"MXvX3X3.m.S.p.C.j.z B p.vX[.6X XgXuXgX3XgX6XuX6X3X=X6X3X3X6X3X6X3X3X=X3X=X3X3X=X3X3X3X=X=X3X[.L. X[. X X=X X X XuXS.q 6 6XVXvXVX",
"VXVX6Xe.S.L.b.S.C.VXVXMXzX6XuXuX3X[.3XT.uX[.6X XuX XuX=X=XuX=XuX=X3X3X=X3X=X3X3X=X3X3X=X=X=X[.L. X=X X X X X X X XQ.P A gXVXvXMX",
"MXvXT.;.l.m.j.m.3.u.u.u.6X6XuXQ.zX3XzX XMX3XzX3XuX=XuX=X=X6X X6X=X3X3X=X3X=X3X3X=X=X=X X=X XQ.S. X=X X=X X=X=X=XS.uX X3XVXvXVXVX",
"VXVXQ.3.S.T.S.T.j.. . Q VX XVX=XuX XuXQ.uX[.3X[.6X3X6X3X3X3X=X3X3X3X=X3X=X3X3X=X3X=X=X=X3X=XQ.L.[. X X=X X=X X=XgX3.+ e gXVXvXgX",
"MXMXL.;.C.C.C.C.b.p h @.vXT.gX[.zX6XgX=XgX3XuX3X3X6X3X3X3X=X3X=X=X3X=X3X3X=X=X3X6X3X=X3X=X XT.L.Q.[. X X=X=X X=X3Xm.o.7.MXvXVXVX",
"VXVXT.7.S.C.m.m.m.zXzXgX6X6X6X3X6X3X6X XuX=XuX6X XuX X6XuX X6X=X=X3X3X=X3X3X=X3X X[.[. X XQ.L.C.T.Q.[. X X=X X X[.[.m.Q.VXvXVXVX",
"VXVXS.j.C.j.b.m.e.u.m.b.6XgX6XvX3XuX XzX[.gX X6X3X3X3X3X=X=X=X=X3X=X=X[.[.[. X=X6XgXMXVXVXMXgX6X[.Q.L.L.T.[. X=XvX%.. B gXVXvXVX",
"MXVXC.l.L.m.m.C.u.q . v =XuX[.=X3XuX XzX[.uX=X6X3X3X=X=X=X3X=X=X[. X=XuXzXVXVXVXVXVXVXVXVXVXVXVXzXzX6X=X[.Q.T.L.T.L.7.S.vXVXVXVX",
"MXVXm.p.L.b.b.b.l.n q ^ 6XgX[.gX X6X XgX XgX3XgXQ.[. X X=X3X6XuXMXVXVXVXVXVXVXVXVXVXVXVXVXVXVXVXVXVXVXMXgX6X X[.T.j.;.Q.VXVXVXzX",
"VXVXb.7.C.b.m.C.b.=XgXgX6XgX XvX6XuX=X6XQ.[.L.T.uXuXgXvXMXVXVXVXVXVXVXVXVXVXVXVXVXVXVXVXVXVXVXVXVXVXVXVXVXVXMXvXMXo.$ A zXVXMXVX",
"VXVXl.7.C.m.S.L.b.b.C.j.[.3XQ. XL.Q.[.uXuXVXVXVXVXVXVXVXVXVXVXVXVXVXVXVXVXVXVXVXVXVXVXVXVXVXVXVXVXVXVXVXVXVXVXVXMXVX XuXVXvXuXVX",
"VXVXl.e.C.b.l.l.C.p . e Q.3X6XuXVXVXVXVXVXVXVXVXVXVXVXVXVXMXVXVXVXVXVXVXVXVXMXVXVXVXVXVXVXVXVXVXVXVXVXVXVXVXVXVXVXVXVXVXMXVXVXVX",
"VXVXb.7.m.j.j.j.S.B u G uXvXMXVXVXVXVXVXVXMXVXMXVXVXVXVXVXVXVXVXVXVXVXVXVXVXVXVXVXVXVXVXVXVXVXVXVXVXVXVXVXVXVXVXVXzXVXVXMXVXVXvX",
"VXVXb.7.C.m.S.T.C.3XuXvXMXVXvXVXVXVXVXVXVXVXVXVXVXVXVXVXVXVXVXVXVXVXVXVXVXVXVXVXVXVXVXVXVXVXVXVXVXVXVXVXVXVXVXVXvXVXVXvXVXVXMXVX",
"VXMX=Xm.b.S.Q.S. X<.Q.j.uXVXgXVXVXVXVXVXVXVXVXVXVXVXVXVXVXVXVXVXVXVXVXVXVXVXVXVXVXVXVXVXVXVXVXVXVXVXVXVXVXVXVXVXVXVXVXVXVXVXVXVX",
"VXVXzX3XL.C.C.L.L.G . - 6XvXVXVXVXVXVXVXVXVXVXVXVXVXVXVXVXVXVXVXVXVXVXVXVXVXVXVXVXVXVXVXVXVXVXVXVXVXVXVXVXVXVXVXVXVXVXVXVXVXVXVX",
"VXVXVXVX3XS.m.m.T.%.< R zXVXVXVXVXVXVXVXVXVXVXVXVXVXVXVXVXVXVXVXVXVXVXVXVXVXVXVXVXVXVXVXVXVXVXVXVXVXVXVXVXVXVXVXVXVXVXVXVXVXVXVX",
"VXVXVXVXMX6XL.l.L.[.uXVXMXVXvXVXVXVXVXVXVXVXVXVXVXVXVXVXVXVXVXVXVXVXVXVXVXVXVXVXVXVXVXVXVXVXVXVXVXVXVXVXVXVXVXVXVXVXVXVXVXVXVXVX",
"VXVXVXMXVXVXuXL.b.;.m.%.3XVXVXVXVXVXVXVXVXVXVXVXVXVXVXVXVXVXVXVXVXVXVXVXVXVXVXVXVXVXVXVXVXVXVXVXVXVXVXVXVXVXVXVXVXVXVXVXVXVXVXVX",
"MXVXVXVXVXVXVXgXQ.) + $ S.VXVXMXVXVXVXVXVXVXVXVXVXVXVXVXVXVXVXVXVXVXVXVXVXVXVXVXVXVXVXVXVXVXVXVXVXVXVXVXVXVXVXVXVXVXVXVXVXVXVXVX",
"MXVXVXVXVXVXVXVXMXC.u Q  XVXMXMXVXVXVXVXVXVXVXVXVXVXVXVXVXVXVXVXVXVXVXVXVXVXVXVXVXVXVXVXVXVXVXVXVXVXVXVXVXVXVXVXVXVXVXVXVXVXVXVX",
"VXMXMXVXVXVXVXVXVXzX XMXVXvXVXVXVXVXVXVXVXVXVXVXVXVXVXVXVXVXVXVXVXVXVXVXVXVXVXVXVXVXVXVXVXVXVXVXVXVXVXVXVXVXVXVXVXVXVXVXVXVXVXVX",
"VXVXVXVXVXVXVXVXVXMXzXzXMXVXVXVXVXVXVXVXVXVXVXVXVXVXVXVXVXVXVXVXVXVXVXVXVXVXVXVXVXVXVXVXVXVXVXVXVXVXVXVXVXVXVXVXVXVXVXVXVXVXVXVX",
"VXVXVXVXVXVXVXVXVXVXMXMXVXVXVXVXVXVXVXVXVXVXVXVXVXVXVXVXVXVXVXVXVXVXVXVXVXVXVXVXVXVXVXVXVXVXVXVXVXVXVXVXVXVXVXVXVXVXVXVXVXVXVXVX",
"VXVXVXVXVXVXVXVXVXVXVXVXVXVXVXVXVXVXVXVXVXVXVXVXVXVXVXVXVXVXVXVXVXVXVXVXVXVXVXVXVXVXVXVXVXVXVXVXVXVXVXVXVXVXVXVXVXVXVXVXVXVXVXVX",
"VXVXVXVXVXVXVXVXVXVXVXVXVXVXVXVXVXVXVXVXVXVXVXVXVXVXVXVXVXVXVXVXVXVXVXVXVXVXVXVXVXVXVXVXVXVXVXVXVXVXVXVXVXVXVXVXVXVXVXVXVXVXVXVX",
"VXVXVXVXVXVXVXVXVXVXVXVXVXVXVXMXVXVXVXVXVXVXVXVXVXVXVXVXVXVXVXVXVXVXVXVXVXVXVXVXVXVXVXVXVXVXVXVXVXVXVXVXVXVXVXVXVXVXVXVXVXVXVXVX",
"VXVXVXVXVXVXVXVXVXVXVXVXVXVXVXVXVXVXVXVXVXVXVXVXVXVXVXVXVXVXVXVXVXVXVXVXVXVXVXVXVXVXVXVXVXVXVXVXVXVXVXVXVXVXVXVXVXVXVXVXVXVXVXVX",
"VXVXVXVXVXVXVXVXVXVXVXVXVXVXVXVXVXVXVXVXVXVXVXVXVXVXVXVXVXVXVXVXVXVXVXVXVXVXVXVXVXVXVXVXVXVXVXVXVXVXVXVXVXVXVXVXVXVXVXVXVXVXVXVX",
"VXVXVXVXVXVXVXVXVXVXVXVXVXVXVXVXVXVXVXVXVXVXVXVXVXVXVXVXVXVXVXVXVXVXVXVXVXVXVXVXVXVXVXVXVXVXVXVXVXVXVXVXVXVXVXVXVXVXVXVXVXVXVXVX"
};
