/* XPM */
static char *e7623ccf60ac48f2d692c85e9fb954e8wV6kBxjcBzPqkUv0[] = {
/* columns rows colors chars-per-pixel */
"64 64 250 2 ",
"   c #3A7B0E",
".  c #3D7F15",
"X  c #497E0F",
"o  c #507C13",
"O  c #3D920C",
"+  c #3E880F",
"@  c #448807",
"#  c #4A950D",
"$  c #56960B",
"%  c #458414",
"&  c #4C8C1A",
"*  c #488917",
"=  c #538D1A",
"-  c #5A8C1D",
";  c #568617",
":  c #4B9817",
">  c #549B14",
",  c #54921D",
"<  c #5B921E",
"1  c #559B1C",
"2  c #5A9D1B",
"3  c #599A15",
"4  c #528D0C",
"5  c #618B19",
"6  c #62931D",
"7  c #639C1C",
"8  c #6A9D1B",
"9  c #4DA31B",
"0  c #5BA31C",
"q  c #57A41A",
"w  c #62A31D",
"e  c #6AA41C",
"r  c #6DAC1C",
"t  c #65A81A",
"y  c #75A91C",
"u  c #73B11F",
"i  c #6EB01B",
"p  c #4D8E24",
"a  c #548D22",
"s  c #5B8D21",
"d  c #549423",
"f  c #5C9423",
"g  c #5C9B24",
"h  c #5B9C2B",
"j  c #579729",
"k  c #5D9D33",
"l  c #4C9023",
"z  c #638C23",
"x  c #6A8B25",
"c  c #639424",
"v  c #699324",
"b  c #649A24",
"n  c #699B24",
"m  c #659629",
"M  c #6B952A",
"N  c #649C2B",
"B  c #6B9B2C",
"V  c #73942A",
"C  c #739C2C",
"Z  c #769A2A",
"A  c #649C31",
"S  c #6D9C31",
"D  c #6F9A36",
"F  c #749C32",
"G  c #7A9D35",
"H  c #7C9D3A",
"J  c #779535",
"K  c #728E28",
"L  c #5CA522",
"P  c #5BAB23",
"I  c #5EA22C",
"U  c #58A825",
"Y  c #5AB129",
"T  c #5EB027",
"R  c #5CA230",
"E  c #64A423",
"W  c #6BA425",
"Q  c #64AB24",
"!  c #6CAB25",
"~  c #64A32D",
"^  c #6CA22C",
"/  c #65AB2C",
"(  c #6CAB2B",
")  c #72A325",
"_  c #73AD24",
"`  c #7AAD23",
"'  c #73A42C",
"]  c #79A22D",
"[  c #73AC2C",
"{  c #7BAC2C",
"}  c #63B32A",
"|  c #6BB32C",
" . c #68B428",
".. c #74B324",
"X. c #7AB526",
"o. c #74B42C",
"O. c #7BB42C",
"+. c #74BA2E",
"@. c #7CBB2C",
"#. c #79B927",
"$. c #65A332",
"%. c #6CA433",
"&. c #65AB32",
"*. c #6DAB33",
"=. c #6CA739",
"-. c #6DAC3B",
";. c #65A53A",
":. c #74A334",
">. c #7BA434",
",. c #74AA34",
"<. c #7AAC34",
"1. c #75A639",
"2. c #7CA53A",
"3. c #74AC3B",
"4. c #7CAC3B",
"5. c #6DB431",
"6. c #6CBB33",
"7. c #6EB13C",
"8. c #67B934",
"9. c #74B333",
"0. c #7BB434",
"q. c #74BA34",
"w. c #7BBB34",
"e. c #73B23C",
"r. c #7CB33B",
"t. c #75BB3A",
"y. c #7CBC3B",
"u. c #7CC23D",
"i. c #79C238",
"p. c #7EAD41",
"a. c #78A542",
"s. c #75B342",
"d. c #7CB442",
"f. c #7DBB43",
"g. c #7DB54A",
"h. c #7CBA49",
"j. c #77BD41",
"k. c #6AAC42",
"l. c #7DC443",
"z. c #839A3C",
"x. c #818F37",
"c. c #84B52C",
"v. c #82BB2D",
"b. c #89B92C",
"n. c #83A435",
"m. c #83AB35",
"M. c #83A53C",
"N. c #83AC3D",
"B. c #8AAC3D",
"V. c #83B434",
"C. c #83BC34",
"Z. c #8ABE34",
"A. c #83B43C",
"S. c #8BB43D",
"D. c #84BC3C",
"F. c #8BBB3C",
"G. c #8CB535",
"H. c #93BD3D",
"J. c #91B93B",
"K. c #81AC27",
"L. c #84C22F",
"P. c #83C234",
"I. c #8AC335",
"U. c #84C33B",
"Y. c #8BC43A",
"T. c #8DCB3B",
"R. c #85C83B",
"E. c #92C43B",
"W. c #92CB3C",
"Q. c #95C639",
"!. c #94D13E",
"~. c #899B43",
"^. c #929B46",
"/. c #83A442",
"(. c #84AD42",
"). c #8AAD44",
"_. c #8BAC4A",
"`. c #8BA544",
"'. c #93A94A",
"]. c #83B443",
"[. c #8BB343",
"{. c #84BC44",
"}. c #8BBC44",
"|. c #86B649",
" X c #8CB44A",
".X c #84BA4A",
"XX c #8CBB4B",
"oX c #91B544",
"OX c #93BB45",
"+X c #93B54A",
"@X c #93BB4A",
"#X c #9BBD4D",
"$X c #99B54D",
"%X c #9AAC53",
"&X c #8CBC51",
"*X c #94B452",
"=X c #99B254",
"-X c #94BC52",
";X c #9BBD53",
":X c #9EB65A",
">X c #A5AD58",
",X c #A3B958",
"<X c #A0BE4E",
"1X c #AABA62",
"2X c #B0B966",
"3X c #84C344",
"4X c #8BC344",
"5X c #84CA44",
"6X c #8DCA45",
"7X c #84C24B",
"8X c #8CC34B",
"9X c #8DCB4B",
"0X c #87CC4C",
"qX c #93C245",
"wX c #94C44B",
"eX c #9BC34D",
"rX c #93CC4C",
"tX c #9ACA4B",
"yX c #99C945",
"uX c #8CD147",
"iX c #94D44C",
"pX c #98D447",
"aX c #8CC352",
"sX c #89C653",
"dX c #94C453",
"fX c #9BC353",
"gX c #95CB54",
"hX c #9CCC53",
"jX c #9CC55A",
"kX c #9CCB5B",
"lX c #95CA59",
"zX c #92D253",
"xX c #9AD259",
"cX c #A2CC4A",
"vX c #A6D44E",
"bX c #A3C553",
"nX c #A4CB55",
"mX c #A1C45A",
"MX c #A3CC5C",
"NX c #AAC85C",
"BX c #A4D254",
"VX c #A8D559",
"CX c #B1D45B",
"ZX c #A7CA63",
"AX c #AAD664",
"SX c #B5D868",
"DX c #B7CC70",
"FX c #BAE46F",
"GX c #98D762",
"HX c #C5CF7B",
/* pixels */
"Z.c.v.E.Q.y $ u y I.` Z.v.X.P.P.L.v.v.i i i i.i i i L.L.L.!.u !.!.u T.i #.L.y c.K.b.Q.y e t 0 P } U q 3 3 G.{ _ o.3 # # q R.| r ",
"vXv.I.I.T.I.Q.c.Q.y ..I._ ..o...v.Q.#.L.#.i L.L.v.v.v.v.u L.L.!.L.u L.!.u t W.L.y W.Q.@.U.t 0 U Y 9 | 2 4 [ { O.i.q. .q # R.q.+.",
"pXC...I.@.R.!.W.L.e u X.....P.U.!.Q.L.I.!.u i.!.v.u I.I.L.u i.u u L.t i.#.@.X.I.E.v.X...w.i.| T 8.O i.8.| 9.9.U.o.q.5Xq.q q 0 ( ",
"I.X.r #.P.P.!.L.W.L.c.v.P._ o.X.Q.I.!.I.T.L.u L.v.i !.W.L.u i u #.i.T.i.o.6X@...P._ X.o.| } : 9 9 O P U P q > > Q w i.i.5XQ 0 8.",
"_ C.6XI.@.i.iXi.C.C.T.Z.I.X.0.e Q.H.Q.cXW._ C.Y.I.y T.w...r #.i...5XiXi.R.i.| o.i.t w i.6.8.8.O 9 9 Y i.8.Y } 6.q.u.5.E | 8.9 P ",
"I.Y...X.i.pXT...U.C.W.I.Z.8 8 Z.Q.K.b.Q.E.@.C.P.P.#.@.@.P.+.+.q  .t Q 5Xq. .Q 0 | +.t 0 Q U : O O Y Y Y Y Y } | 6.u.9.> P 6.T 8.",
"6Xc._ e P.i.@.#...yXcX` K.c.J.cXQ.b.yXc.I.pXI.O.U.P.o.i.w.+.t > i.q # | # Q | +.+.Q  .q } Y U : O Y Y U 9 6.i.L | 0 Q #  .} 9 9 ",
"E.O.C.Z.#.Y.P.X.I.v.K.cXcXG.vXvXvXcXH.c.C.{ C.uXU.u.w.5.0 q #  .q t >  .9.o. .# q.Q q P Q : 8.U i.q } i. . .i.6.9.w | / P P O : ",
"_ V.c.P.Y.w.R.#.T.D.K.tXvXyXVXvXcXQ.H.Z.O.4X6Xq.2 > 2 Q i.Y 9 i.q i.w.@.U.t.| 0 Q  .t 9 | Q U } / Q 3 U.U.4 E 0.( | o.5.0 0 P 0 ",
"V.C.W ! uX+.o.T.w._ Y.O.yXVXtXOXyXY.V.X.6X6X| w # 0 Q > 8.i.i.u.i.I.u.w.o.q.u.w  .i.0  .q 5.0 ( w w.w.C.C.C.c.X.! 7 > | 5.> l.uX",
"[ U.w.+.0 r ! uX! 0.w.O.D.tXC.) C.yXO.6XU.E Q E 9.q.# L Y i.8.i.#.u.@.y.iXo.! y.i P i  .Q y.o.( 0.V.C.F.qXV.{ tXO.o.w ( w.E u./ ",
"4Xo.! o.Q $ i.! o.U.r y.w.U.4Xy.D.U.e 3XU.| u.| 0 Q q } q 9 6.Q +.R.pXVX9.e 5X| q.+.+.q.o.6X0.W [ O.F.{ S.c.{ 4XF.V.0.,.9.,.^ [ ",
"{ C.6X[ e e o.! o.[ ( [ q.o.( w.! 0.w.Q 9.9.t.5.Q # 4 5.Q 9.q.q.6XX.C.w.^ ! E i.q.0 +.> 6Xy.4X<.^ 6X4X8 ) F.A.S.qXF.qXD.}.wX9.{.",
"V.V.F.rXV.D.e C.D._ [ _ [ W 2 E w.! 9.E q.| q.0 1 l./ ( @ | | o.6XrX[ o.W W y.w } 0 > w y.{ ) ] BX6X( ! o.8Xw.F.A.[.wX[.XXr.< - ",
"G.nXyXyXF.K.yXC.CXtXK.A.<.o.9.0.u.o.E 9.q.5.0Xo.3XzXU.y.w.( | 2 ! _ D.4Xw.7 r.( Q } Q q.6X0.V.D.A.0.3X3X/ q.9.}.S.OXbXbX@Xb ; *.",
"nXBXCXG.) G.H.cXSXtXrXqX4XW W E o.0XQ L L l.u.0XzX( U.U.6XD.0.7 D.W xXV.gX3XQ 2 3XuXy.9X4XD.XXqX{ E 7Xq.t.l.l.}.[ oXfXbX[.].f r.",
"Y.W 4XiXw.Y.V.qXqX}.D.D./ 5.E | 1 i.l.t.I &.l.zXwX0.0.3XC.V.r.E E ' <.W 0.[ 9.W o.9.D.3X0.0.A.0.U.y.w./ t.y.9.3XwXXX>.hX8X^ e.I ",
"o.D.! 3 ! v.) V.G.V.3Xq.t.5Xw.0 > P 5.L 6.I e.3.[ D.4X0.qX}.3XrXD.' D.gX,.8Xr.4Xn ; [ <.4XxX0.D.8Xw w.3X3Xt.{.,.wXrX0.D.{.( e.L ",
"8 U.O.C.E.Z.G.OXm.tXhX[ w.9.! o.L # E 3X&.5.g 5.{.rX4XW wX4XV.8XA.V.r.r.8X4XD.[ W F.V.n ' 4XD.<.D.D.( b gXt.~ [ [ A.rXrX{.r.e./ ",
"<.qXyXF.K.K.OXH.OXeX}.{ 7 n 0.4Xw Q 5X9.1 7.E e.y.V.8 <.A.hX' [.A.A.A.4X6X,.<.4XS.S.eXV.}.4Xr.0.0.V.0.[ r.9.0.b W n <.D.,.{.y.~ ",
"tXF.V.F.OXc.J.cX] qXeXOX{ V.4X7 w.o.3Xl.*.( f.~ b E ] qXhXhX[.tX}.r.7 W r.<.nXS.m.B.OXtXeX[.A.[ OXF.<.{ <.,.' W 6 [ n 0.^ W r.%.",
"F.H.qXyXCXCXqXV.qXwXJ.S.eXA.U.[ w.y.E y.f.zXt.~ ^ D.hXeXAX@XeXMX].W ^ wXD.}.Z wXS.S.n.bXnX<.VXhXnXqXV.m.,.<.<.<.,.V.0.6 ,.,.,.r.",
"6X3XqXH.H.c.{ 8 [ tXSXwX) 0.rXy.U.e L 0.y.3X9.y.e.gX@XeX}.OXoXnXF.].}.<.F.>.n.cXbX<XbXB.#XeXtXA.N.OXbX}.] <.r.}.V.4.A.6 v n %.kX",
"9X9XA.8 8 ) C.D.o.0.[ <.0.0.2 Q 2 D.u.y.9.9.*.5.y.8XoXS.].] #X#X}.3X}.A.<.S.oX#X<XCXNX<XMX[.@X[.OXm.OX>.v C :.' D.<.6 V.' b XX[.",
",.6XqX{ tXtX3XrXu.0.4X^ r.9.( 3 W 0.q.q.[ y./ y.( b fXfXA.].@X#XA.].hXgX' qXMXAXSX<XNXHXtX] @XwX>.oXB.[.oXZ A.qXm.<.Z V.] 6 ; v ",
"9.0.BXBXBX4XD.o.b 9.<.[ 7 3Xy.q.6X4X3Xq.y.( E e.^ f.MX#X[.eXOXoXV.r.A.n S.S.OX#XeXSXOXoX[.[.[.XXOX] n.oX[.G >.m.N.m.Z 6 C [.V 2.",
"XX{ ].VXOX) ) D.r.b r.].' ,.( 9XD.9.3X/ 6XzXt.9.b gXMXN.[.MXJ.m.hX8X' }.}.wXS.@X#Xm.SXeXeX@XdX<.XXn.6 Z Z V Z Z A.<.5 6 m.[.N.).",
"v C m.4.S.] n 0.,.*.8XVX8XW 3X{.( y.( y.0X0.D.r.W ,.MXNX#XbXNXOXtXr.<.4X].}.[.>.fXMXAXVX}.qXb dX].N.>.x Z [.n.B.#XS.OXOX>.N.;XG ",
"@XoXNXA.OX] <.C A.<.d.7X*.r.3X{.7X3XE w.y.[ r.' 4.@X#X+X@XSXSXOX<.' <.^ }.D.{.:.XXBXXX:.4.A.e.N {.XX}.@X+Xn.B.oXOXm.S.B.oXmX).G ",
"fXfX}.' A.<.' ].A.4.b 7X,.( 3X,.,.( 3X( E 9.D.F.fX).Z ;X$XbX#XJ.N.F.].}.8X}.XXgX].gX4.B .X3.,.gXd.%.dXjXoXn.B.).B.S.] >.).>.x n.",
"oX[.wXgXW }.].n 4.,.s./ d ~ 3X3X,.E <.{ [ ( eXN.v oX+XmXNX$XJ.OXqXm.wX}.8X,.}.gXB {.r.b {.rX$.d.e.N 4.-X+Xn.NXB.B.B.m.[.V M.mX`.",
"[.;XdX].d.{.r.r.r.~ $.& * L 7.^ *.9.8X[ 7 [ tX] n.oXbX+X<XJ.bXB.A.] 8X,.r.,.f.r.b b < f ~ 3.,.s.8X%.3.XX,XB.<XB.B.n.B.}.V N.+XjX",
"bX-X].B %.%.B 3..Xg.& = I h.~ d ^ ^ 8X,.y.,.A.fXoXn.fXMXVXOXA.<.<.[.}.N.,.r.d.f.d.f b :.- :.^ aXxX4.:.oX@X+X>.B.+X+XM.:.c :.4.F ",
"kX4.<.1.f - =.3.aXh.a %.a * = &.*.< ( 7X' ' ].].oXZ m.VXwX0.wX[ >.N.>.:.:.aX%.4.d.4.3.:.A dXlX,..X' <.fXbX).-XmX*X2.2.N.C ; 4.N.",
"XXN.B :.,.B g.&.%.d.h % $.-.I &.e.7X*.8XkXdX(.C @XkX].A.XX4.].] oXN.>.]..X4.m XXB n 1.1..XkX(.ZXMX].:.B.G M.M.NX+X/.(.dXdX:.<.4.",
"B XXr.%.h.s.=.f $.$.% h.7.I I d 5.~ 7XkXZXMX2.[.:.r..X:.{.r.8X].[.fX>.].M 4.<.].fX X>.2.4.4.S dX}.}.:.>.[.+X+X).G ).4.; S }.:.<.",
"o ^ d.%.h ~ e.e.=.~ ~ GXe.I L &.~ ~ e.{.].fXkX-X X:.4.%.%.c ].kXgXXXC x C v C 4.F  X[.).fX(.m (.:.N.(.V -XZXG M./.C 1.m XX:.:.8X",
":.:.lXsX-.B $.-.-.$.sX1 , &.h e.I ~ N XXlXjXp.-X:.1.3..Xg.p.XXd. XZX[.M V (.B N.>.x ;X+X).2.4.:.v ].2.[.+XoXx M (.z s 4..X' 0.:.",
"&X1.%.h h a d -.& , s.8X,.t.5.e.E *.I ~ 3.e..X].2.>.(.-X:..XXXf ,.jX#X4.>.[.;X+X$X$X=X;XmX+X XF C >.M.2.).G n._.@Xm z gXXX<.].^ ",
"3.1.1.m g f 1 b e.r.=.N =.t.b ~ f.e.l.g 3.s.%.B [./.-X X(.1.g 3.dX}.- aX:.:.MXB.$XoXG (.>.F ; 1.v 4.G fX_.2._.a.F M 1.1.g < ,.^ ",
"|.a.A 1.%.%.m %..Xd.].r.{.,.r.( j.j.t.I L 3X%.3.[.[.mXSXfX&XXX]..Xf m r.S B XXN.$XM.K M. XXXF M 1. X*XSX;X2.a.x m :.m %.3.^ f r.",
"jX(.D D :.3.8X].4.{.,.<.gXb {.,.2 5.&./ ,.sXgXN.2.n.mXfX;XM.@X4.c f.%.d.3.4.2.2.-X;X;X-X X].1.F F 4.(.).a.`.a.m S a %.%.,.3.r.- ",
"a.a.x 1.- c 3.].XX:.wXwXN.r.' g L P t.9.W r.MX<.+X].N.N.:.Z >.] ~ 7.%.s.].%.d.p.4.(.).M._./.B B - G - M *X-Xm o a =.A %.e.d.%.^ ",
"_./.M z F 4.d.B XX].[.[.A.XXA.{.g U t.^ B >.[.A.<.A.V B o 5 V >.~ d e.%.g h.m %.4.F ).M.-XkX Xs (.4.D 2.1.M D a D =.a %.f 3.m %.",
"H _.*X-XkX|.p.XX4.@X:.].gX4.}.f./ 5.f.W }.oX2.@X).[.].N.[.V G n f h U d d &.f 4.(.c -XdXH F -X2.].F ].4.S s a A ;.A %.A h g m m ",
"*X*X_. X(.D - [.kX[.>.>.N.:.S 4.9.e.r.n <.n.n.>.[.@XoX>.}.}.MXN.%.&.l * I % N aX XM 1.p.(.:.(.p.F 3.p.4.dX.XD =.A -.s.N =.& d =.",
"/._.*XJ (.2.(.p.(.A.c C ].4.v :.].:.' :.1.m.+X2.oXM.2.fX@Xv ^ 3.e.I 7.d * -.h 3.d.&XD o 2.(. X(.4.4.1.A D a.g.=.=.k j d a = m %.",
"/.D s J 2.1..X].jX].XX4.@XdXXX>.[.Z V G jXdX[.@XmX+X>.N.N.:.0.~ ~ , g = -.f..X%.%.].M.[.-X_.(.M B n ].m m 3.D m d a ;.k a A 1.- ",
"D a._.D kX].f.N {.XXXX1.XX] n.G n.$X$X$Xn.).H ZXFX(.D 1.^ <.^ {.g f , 3.^ N B %.].jX(.J *X_.H G :.4.n ' :.].3.m f j k.a D a._.J ",
"k D :.(.dX3.*.g r.].N d.b XX#XB.oX,XK ,X;XJ D  Xa.g.1.m :.:.D.4.' A.:.^ ,.; = d.d.(.&Xp./.2.~.*X4.,.^ n >.@X1.m 3.A N g.m /.a.J ",
"z _.2._.B n ~ =.GX.XA X = s.:.C v F [.(.4.1.A & A m f A d.<.A.A.4.4.qX].r.~ d.e.$.- :._.*X*X%Xx.M (.N.5 4.1.1.B A d.d.d.s s a.H ",
"-XF F 4.>.6 4.%.A =.$.j * * f %.%.A .X3.1.N XX1.A m :.:.4.4.[.dXN.M B %.0.=.&.g , f m J +XZXx H +X2.(. XM D ; 1.].S &X&XM  XH H ",
"M M.N.[.4.N.N c j . %   j p . k..Xd.g B .Xc ].(.[. X-X(.jX[.(.1.kX:.- :.3.*.= = h f :.; ).K _.,X,X+Xa.H 2.D A D p.XX].(.2.F M >.",
"dX:.3.,.B b m %.p . p ;.p k k p A %.a.d.].XX4.N.[.@XB dXFX&X|. X4..Xb , %.r.& g f B ].H ).).K `.ZXJ /. XS F S 2.; c /.>.z z F (.",
"3.h.5.7.b n - ,.p p k.k k D g.g.&X3.:.4.:.@XN.5 :.fX1.SXAX(.m m h 3.3.= & 3.g.%.- B 1.G Z J z.V '.*X+X X1.D %.D H G x +X+X(.M v ",
"$.I & I e.*.m %.k d p D j k k.g..X1.1.f z :.A.].#X].>.dXa.h f h f f 3.%.$.f ~ $.m %.%.G >.Z K M._./.M  XD p.S 1. XJ z.z.+X,X`.x ",
"l &.d + ~ e.d.~ -.j * A a f 1.3.A 3.g.^ b {.XXA.' W ^ < A s.d A 3.].:.$.%.&.h R * , XXp.-X).K ,X_. X(.c B XX1.D ).`.z.`.%X1X%X`.",
"* R I &.7Xf.,.= h d &.$.f 3.r.& f.-.7.d .Xd.y.e.^ ,.*.=..X.X$.f.%.r.d.f.f.s.h 7.-.s.].|.(.M.$XNXZ N.' m m c 1.D z %X'.z.x.%X1X'.",
"7.&.d &.d.e.N = d j &.& E j.L , * , 7.3.~ e.f.,.d.<.b :.d.4.:..X%.g r.7X*.h s.f.lXp.c -XM.G ;X+X>.4.< :.dXD -X:XDX=X=X>X2X>X^.:X",
"N m %.f d.^ =.3.I 7.: l e.*., @ & N d ~ N {.,.,.XX3.:.A.:.f B 4.d.&.d sXf.=.N B .X X1.XX>.n.).[.4.' dXp.4.(. X-X:X*X^.1XHX2X~.%X",
"S 1.2.%.].8X%.k.-.R ;.l $.&.l.s.g f :.A sXlXlXB B < ,.>.:.- B A.-.1 * &.sX].d.XX1.+XF Z :.F v ].:.4.d.4.|._.G H _.`.'.:X~.2XHX>X",
"XX1.z 2.,.sX$.7Xs.l s.R 7.R 7X%.,.N.p.|.c B ,.4.< ; ^ ' 8XXX>.,./ U t.~ =.r.1.N. XM G -XG M ].dXB p.1.2.1.1XZX/._.*X%X:X2XHX2X>X",
"kX:.2.>.%.f R -.d k j k h   3.p.-X:.p.kX:.f d.sXsXe.7.~ e.gX7Xe.7.l.*.*.~ .Xm ]./.4.M /.jXfXN./.&XD G G _.ZX`._.H :XH =XHX2X2X>X",
"XX:.G 4.m %.s.* k j % l k g.s S c  XM XX.XlXh $.$.R 0X7X: l.0X*./ 1 1 7XlX=.d.].&X:.4.fXZXAX>.G lX&X|.;X_.~.J x J /.J H 1X>X%X^."
};
