/* XPM */
static char *b96a1e60bcd54bf2c05f74032a2a122aJKKTae2BwVHsNzdD[] = {
/* columns rows colors chars-per-pixel */
"64 64 256 2 ",
"   c #010303",
".  c #0C0201",
"X  c #03070A",
"o  c #050A0D",
"O  c #090D0D",
"+  c #090A05",
"@  c #170903",
"#  c #09120D",
"$  c #17130A",
"%  c #050C12",
"&  c #0A0E12",
"*  c #0D1214",
"=  c #0C141B",
"-  c #0C181D",
";  c #121415",
":  c #12151A",
">  c #181A1A",
",  c #180E16",
"<  c #271707",
"1  c #351906",
"2  c #281A15",
"3  c #2E120A",
"4  c #1C2118",
"5  c #2A241A",
"6  c #362617",
"7  c #392B12",
"8  c #191D26",
"9  c #171D34",
"0  c #0C1A29",
"q  c #2A1928",
"w  c #1A2429",
"e  c #182738",
"r  c #1A3339",
"t  c #0D2A2F",
"y  c #262828",
"u  c #372C25",
"i  c #27312C",
"p  c #393429",
"a  c #262838",
"s  c #283438",
"d  c #343739",
"f  c #342D36",
"g  c #532C16",
"h  c #49361C",
"j  c #55341B",
"k  c #452711",
"l  c #643919",
"z  c #483627",
"x  c #583B26",
"c  c #453D37",
"v  c #4E2F30",
"b  c #633A2D",
"n  c #401D07",
"m  c #2D4139",
"M  c #5C462C",
"N  c #494439",
"B  c #5A4738",
"V  c #585238",
"C  c #66462A",
"Z  c #684A35",
"A  c #754D36",
"S  c #6B5439",
"D  c #775439",
"F  c #74492C",
"G  c #7E643D",
"H  c #54431D",
"J  c #172744",
"K  c #262A44",
"L  c #293745",
"P  c #353946",
"I  c #2D3A50",
"U  c #1E1E42",
"Y  c #38474A",
"T  c #2B4457",
"R  c #374757",
"E  c #2D454F",
"W  c #3C5368",
"Q  c #3B5A79",
"!  c #314E68",
"~  c #234C5D",
"^  c #484848",
"/  c #585249",
"(  c #474A54",
")  c #495459",
"_  c #575859",
"`  c #524C47",
"'  c #675747",
"]  c #795B45",
"[  c #675E54",
"{  c #6D5146",
"}  c #79634C",
"|  c #686259",
" . c #776658",
".. c #7A704D",
"X. c #475767",
"o. c #565B66",
"O. c #425B76",
"+. c #4E566E",
"@. c #6A5B69",
"#. c #566777",
"$. c #55646E",
"%. c #666569",
"&. c #746A66",
"*. c #7A746C",
"=. c #666A76",
"-. c #767478",
";. c #6F7079",
":. c #5A645B",
">. c #B5373D",
",. c #CE3B39",
"<. c #84583C",
"1. c #87643D",
"2. c #94733E",
"3. c #845C44",
"4. c #964D53",
"5. c #896748",
"6. c #946A4A",
"7. c #98744B",
"8. c #886A55",
"9. c #956C55",
"0. c #8B745B",
"q. c #987658",
"w. c #8C724B",
"e. c #A5795B",
"r. c #A1774E",
"t. c #887767",
"y. c #987964",
"u. c #847B77",
"i. c #91716C",
"p. c #A67C65",
"a. c #B0766E",
"s. c #AA5765",
"d. c #D3514A",
"f. c #D76D71",
"g. c #DA5B57",
"h. c #D24241",
"j. c #71817E",
"k. c #A98458",
"l. c #B1895D",
"z. c #988468",
"x. c #988876",
"c. c #8A8379",
"v. c #AA8568",
"b. c #B78A6A",
"n. c #B7946C",
"m. c #A88975",
"M. c #B58B73",
"N. c #B78B78",
"B. c #A8957B",
"V. c #B9947A",
"C. c #AE9169",
"Z. c #9E8A4D",
"A. c #C69779",
"S. c #C38E71",
"D. c #D6977D",
"F. c #395E8A",
"G. c #3B638A",
"H. c #3A6996",
"J. c #307399",
"K. c #3173A7",
"L. c #186491",
"P. c #476788",
"I. c #546C88",
"U. c #497696",
"Y. c #5A7690",
"T. c #687987",
"R. c #777985",
"E. c #647D98",
"W. c #6E6E80",
"Q. c #497CAF",
"!. c #7273A1",
"~. c #4477C8",
"^. c #837C86",
"/. c #946C8E",
"(. c #A26B93",
"). c #C87086",
"_. c #3886B3",
"`. c #34819F",
"'. c #75838D",
"]. c #6B8697",
"[. c #7B8A95",
"{. c #7C8C9B",
"}. c #768796",
"|. c #7B919B",
" X c #6C848E",
".X c #518BB2",
"XX c #788BA7",
"oX c #7C95A8",
"OX c #6D8EB3",
"+X c #76A5BA",
"@X c #5B839C",
"#X c #5490C8",
"$X c #6A96CB",
"%X c #5BA6D5",
"&X c #6FA9CC",
"*X c #6BB0E5",
"=X c #4DA3D2",
"-X c #87858A",
";X c #858A97",
":X c #89959B",
">X c #97979A",
",X c #958D8C",
"<X c #AA9987",
"1X c #B99986",
"2X c #A79A96",
"3X c #B2928B",
"4X c #B9A389",
"5X c #A9A298",
"6X c #B9A997",
"7X c #B6AB95",
"8X c #8395A3",
"9X c #8799A9",
"0X c #949AA4",
"qX c #8E96AE",
"wX c #A893A7",
"eX c #98A4A9",
"rX c #9BAAB4",
"tX c #89A6B4",
"yX c #BAAAA3",
"uX c #B0AFB1",
"iX c #97A29E",
"pX c #C59B84",
"aX c #D88D96",
"sX c #C6A289",
"dX c #CBAD95",
"fX c #C6B7A6",
"gX c #D8BAA4",
"hX c #CAAFAD",
"jX c #F2B4AB",
"kX c #F6999A",
"lX c #D7C9B5",
"zX c #D6C5AE",
"xX c #EFCCB6",
"cX c #8FB7D3",
"vX c #ACB6C9",
"bX c #88BAE5",
"nX c #8FA1CF",
"mX c #E0BCD4",
"MX c #99C4D9",
"NX c #AFCBD8",
"BX c #98CAEB",
"VX c #B2CDEC",
"CX c #9EE4FE",
"ZX c #CAC8C8",
"AX c #D4D2D4",
"SX c #EFD8C9",
"DX c #F8E8D6",
"FX c #F5E7D3",
"GX c #CCD5E9",
"HX c #D5EBFA",
"JX c #FEF6E8",
"KX c #E7FBFD",
"LX c #FCFCF8",
"PX c #F3ECEA",
"IX c #FFDCE1",
"UX c #BFC1BE",
/* pixels */
"* ; & o * 4 s ( =.[.0X;X;X-Xo.y # # o # o o * o X & .   2 . . , + O * o X = % % % % o > + + + + O O O X o o o # # % % % o % = - ",
"; ; & & * > y Y o.-.;X;X^.-.( 8 : + # #   4 O # > > q d d -.` . $       X X   % * = % # + # # + O O O % o # # o % # % % % % = = ",
", ; & & * ; w f ) =.W.R.W.%.^ y : ; &     + $ . c.PX| ,X>X<Xc.N [ 2 -.c.` ` 8 o   & ; O * # + O O % % o o o o o # % % % % % = = ",
": ; * * ; * > s ( o.;.W.=.@.( d : , O , ; i *.uXAX5Xx.yXlXyX7X..z [ hX>Xu > # ; i ; * O * o # * & & O % o o # # # O % o % % = - ",
"; * * * * ; w P ) $.W.R.W.=.o.( f , , O # c.5XJXSX7X*.7XlXzX7X<X5XlX4X5 $ 5 $ &.c.>     - = = X & & O O O O o o & & % % % % = 0 ",
"& : * * * : a ^ o.;.!.^.^.R.@._ P 8 8 . c 5XfXzXlXlXz.fXFXB...AXDXSX} |  .} 6XfXp . > y : % X = & & % O # o # o X X % % % % = = ",
": : ; ; ; : i R =.R.;XqXqX^.W.=.( , ; 5 | V 7XzXzXdXB.z.7XB.lXfXfX .{ dX6XzXFXyXyX,X| 5 X : & 0 & O * O % O o o X o % X X % = = ",
"* : ; ; * * y ( @.W./.;X0X;X^.@.` y ; ` *.x.7XzXfXlXZ.B.7Xz.B...t.B.,Xx.] <X7X6XfXlX2Xd @ w o & O & O O O O o o X X X X % % = = ",
": * * > > * y P o.R.^.qXrXqX/.=.` _ N z [ yXFXzXB.4X7 z.{ 6 p 8.5X[ M / t.8.x.<Xi. .t.*.c u @ & O O + ; O O O o O X X X o o = , ",
": ; * : : ; 8 L +.R.^.;XwX;X^.-.-X-X[ u.x.4X7X7X4X<X7 z z 2 . q  .5 } z  .' 2 S x.x.{ / ,Xu . , $ * ; X   & X & X X X % o & & = ",
"; : ; ; ; = 8 y ( @.R.^.;X,X^.-.%.&.| c.zXFX7XB.x.z.B z 6 6 @ 3 <Xx.N z z <Xt.V  . .&.h ` 5X[ $   $ O O * o & X o X X X o o & = ",
"* * * * ; ; > w P ( @.W./.^.^.-.[ c.c.zXJXzX7X7Xx...x z @ 3 6 2 ' z @ z ' z { ' < z B &.z [ *.p i y + O *   : o & % X % o o & & ",
"% * * % * ; ; > 9 P ( @.-.-.-X*.&. .<X6XlXJXxX0.w.0.' M x z v / x.{ 6 @  .x u v 2 @ 2 2 u 5 p ^ [ > O + . : X X & X o o o X o & ",
"* = & & * * * : : q f ^ @.;.u.*.&.4X<XzXDXDXzX4X4X1XxXB.x...} } z.i.k z ' ' z c N 2 y 2 u < | 5X| d + o O ; o X X X X o o X + O ",
"= & & % ; O & : > 8 f ^ o.&.u.u.} u.6XSXxXxXsXxXxXdXzXsXsXdX1Xm.m.9.] S b B 2 5 [ ^ c N ; > ` c *.-X; O O X 8 o & X % o X X X % ",
"& & o O & O & 8 y f P o.-.^.-Xu. .i.fXzX4X7XgXxXgXdXsXpXdXsX1XpXM.v.8.8.] N 6 z c ` ` / u 4 5 5 / iXu + O , X % X X X X X X + O ",
"O O + + O O ; y a P o.W.R.-X-X-Xt. .5XB.v.gXgXzXgXsXA.sX1XsXsX1XM.q.q.3.y.0.C 1 z v ' ' ` c i u u c.| + ; # o % o o + + + o o o ",
"O O O + O # > i d ( %.R.;X;X;X-X*. .t.4Xz.dXzXgXsXN.M.V.V.pXpXA.m.q.p.p.v.p.C g b x ` B c ` ` > i [ %.4   X o % # % + # o O & & ",
"X o o X o * 8 i P ) W.;X:X:X;X-.-.*.,XlXC.zXgXdXV.v.a.3XN.1XpXN.v.e.e.M.b.p.F g Z C B / p u N 5 5 N ,X4 # % w   o o o o O & & % ",
"= : = = : : w d Y +.R.;X0X0X;XR.%.p ,XJXFXFXA.A.1XN.N.N.N.N.N.N.M.p.b.b.b.N.<.g 3.} B x p 2 5 2 p c :.4 # X   - o o o % % % * = ",
"L L s Y d s d R X.$.R.:X9XeXiX[.R.^ >XLXDXDXSXzXsX3X1XN.3Xa.3XN.b.a.n.e.b.b.r.F 3.q.] z 7 2 5 5 5 ^ *.i m w : - - : > : - 0 0 : ",
"X.$.o.X.$.X.) $.=.T.;X9XeXrXeXiX-Xo.2XLXJXFXDXSX1X3XpX3XS.pXS.S.S.S.A.S.b.l.a.r.D 5.] M < < p u p N | j.) s e s s a r e w w e w ",
"T.T.T. X X;.=.T.R.}.8X9XeXeXrXiX>X-XuXLXJXJXJXfXp.3X3XN.3XS.S.pXA.A.D.A.D.n.b.n.k.8.D Z H c H u p ^ %.) d m ) E Y R P s L s K L ",
"!.}.}.}.|.[. X}.}.}.8XeXrXrXrXeX0XR.ZXLXLXDXfX} 3.y.a.N.N.a.N.S.b.S.b.A.pXA.b.M.V.V.q.S S / N p c / *.X.R X.W ) X.R R R I I T T ",
"9XoXoXoX|.|.|.{.8X{.9XqXrXrXrXuXeX:XAXLXlX*.Z z C { 9.e.e.b.e.e.p.M.M.b.pXpXA.A.v.C.y.} ' [ ' N c _ :.o.) R X.X.X.X.X.R W R ! ! ",
"oXoXoX9XoX|.|.|.|.{.8X9X9XrXrXrXeX-XPXJXc.*.} ] M Z 3.9.a.e.e.6.9.A 3.y.p.p.A.sXV.v.0.] }  .[ N ` [ o.( R R W W X.X.O.X.W W W W ",
"oX9XoXoX|.9X:XoX9X8X9X:X:XeXeXeX>XNXLXJXx.B 1 3 k g b 6.S.b.p.<.A A g g A 5.q.v.4XB.0.} } } / V _ [ _ Y R R W W W O.X.O.O.Q Q Q ",
"oXOXoXqX9XoXoX9X9X9X9X;X:XeXiXeXzXLXLX6Xt.z n n g j b a.A.A.r.F A j b A 3.3.3.3.v.n.4XB.0.| ' / %.%.) P E R W W W Q O.Q W Q Q F.",
"tXOXoXoX9XoX|.:X:X8X:X;X8XeXiXeX>XAXLXhX,Xz.8.{ A { 9.pXpXpX3.<.k 1 3 3 g <.7.D q.V.4Xm.0.] ' ' | %.) ( R R W O.O.+.P.O.Q O.F.Q ",
"tXqXtX9X8X|.;X|.|.;X;X'.:XeX>XeXuXDXLXSXx.8.] Z 3.9.3XpXpXb.9.6.D A j j j k C e.M.sXA.m.0.} { ' %.%.X.) X.O.O.I.I.I.P.F.F.F.F.F.",
"tXtX+X9X|.|.[.[.[.[.[.[.>X0X>XuXAXJXJXFX3Xy.m.3Xa.a.dXpXpXa.e.q.q.] 5.9.6.9.6.D q.C.V.v.8.' Z V c.R.%.o.#.O.U.E.E.E.I.P.P.G.F.F.",
"qXqXqXqX8X|.[.[.[.[.'.[.0XeXeXuXlXPXJXgX1X1XsXm.3XdXaXpXS.N.N.p.v.e.<.D 3.6.e.k.v.M.V.C.8.D 8.m.fX2X'.=.W.I.E.E.!.E.Y.I.G.P.G.F.",
"eXqX9X8X;X;X{.{.:X[.[.:X0XeXiXZXZXJXJX1Xv.v.p.8.9.gXpXpXpXpXN.M.M.M.n.b.b.S.S.k.V.V.4XC.w.q.n.A.e.9.,X-.T.].E.].OX!.E.P.P.P.H.F.",
"eX0X8X;XXX}.}.{.;X|.-X:XeXiXiXAXLXLXSXv.q.6.3.A gXlXa.pXpXN.M.e.e.V.D.A.S.A.A.b.V.sX1XV.7.k.S.S.f.<.i.c.'.XXXXXXXXXXE.U.H.H.H.H.",
"rX9XoX{.}.].|.|.XX|.[.|.eXiX9XKXLXLXfX9.6.<.A Z jXgX9.S.pXaXaXe.D 6.b.S.n.S.D.A.b.V.M.C.e.n.l.l.f.<.x.>X}.].oXoXOXXX@XY.P.F.F.F.",
"tXtXoX|.].].}.oX|.}.[.|.9X:X:XAXPXJX<X9.9.F C 3.8.y.6.a.6.2.r.2.<.D 6.e.l.l.n.A.V.4XM.k.k.n.r.<.pX8.,X>X}.XXqXoX9X!.E.E.U.H.F.F.",
"9XoX|.|.].].}.}.oX'.{.;X;X-X:XwXZXPXx.q.6.l b ] { b Z 3.l l <.r.6.F <.6.r.r.r.S.S.n.n.b.D.dXA.e.N.a.2X>X|.oX9XoXXX}. XY.I.P.F.P.",
"oXoX|.].}.'. X[.;XR.;X-X^.-X,Xu.uXDXz.q.2.g j ] Z k g g n l <.<.5.F F 1.6.r.r.l.n.k.n.C.A.n.b.v.p.2X2X:X|.|.XXoX{.}.E.T.Y.I.I.I.",
":X;X|. X X XT.R.R.;.-.;.-.-.u.&.5XDX0.q.D n x ] v Z } A j j C C 3.F F <.6.2.r.l.l.k.n.C.n.V.A.sX3X2X>X:X|.|.}.}.}.}. XE.E.T.Y.!.",
";X'.'.-.;.=.;.=.=.=.%._ %.:.:.:.,XFX0.7.F 3 z ]  . .{ { F C A C x k g <.r.2.Z.l.k.7.b.r.7.V.pX1XwX2X,X:X|.|.|.{.;X}.'.'. X].E.R.",
"-.%.%.%.%.:.X.:.:.) ) ) Y Y Y N t.xXz.G j k C h x.yX4X<XB.z.t.} { n 1 6.7.5.k.Z.r.r.r.1.q.B.m.1X5X>X,X|.|.|.{.;X!.[. X X}.}.}.}.",
"=.%.| ) ( ^ ) ) ^ Y Y m i m m 5 / lXZ.C D l S 7 2 B &.z.z.t.} Z C b n q.7.1.7.7.7.k.w.6.w.8.} ,X<X:X[.|.[.}.'.'.R.R. X X}.[.[.[.",
"` _ N s m s i s d s y q i 4 w d 5 x.4XF D C S 7 @ . . . . . . @ 1 A j 8.} 1.w.7.w.7.1.q.M M ' c.-X-X X X X XT.T.T.W.T.T. X X'.'.",
"m m i i y 4 w i i y y f 5 4 q y w | 7XV D C } } &.B 1 @ . < @ . @ } D D C <.w.w.1.1.w.q.7 p  .j.R.W.=.=.#.#.=.#.=.=.W.T.T.T.T.=.",
"i i i w ; > s d d 8 q q q v @.W.>XuX2X{ D Z m.1Xi.8.z @ @ B [ 6 g } 5.S C } 8.D D D z.C 7 N *.:.%.+.+.$.X.o.) o.o.+.O.#.$.$.$.$.",
"s y s 5 4 i y w q -.vXZXmXGXmXPXLXHXZXi.S ] 3XB.i.<Xi.8.9.3XaX] 5.A } Z Z S D S j w.z.< p / :.) ( R R E E E P P P P E R W W R R ",
"d y y 8 y s 8 s eXKXKXNXVXHXHXKXVX8XZX2X{ y.1Xm.).<X3X3X3XpX3X9.q.D ] M C z j j j z...< V :.Y Y L K r r e e a a a K L I T T R E ",
"f y i y a w 4 [.KXcX].XXoX+XtX+XcXE.rX2X .i.pXy.y.3XS.N.a.pX3Xi.3.G S j x k 7 h Z z.S 7 N :.m t a 9 e 9 9 w w e a K I I R R T E ",
"K f f 5 9 0 f KXNX@XOX$X!..XU.P.G.Q tXZXi.i.pX9.p.y.y.v.v.N.a.9.G 1.H C j h N V 0.z.H 7 i R e a e e a a 9 9 w e r J K I I R ~ ~ ",
"P f 5 5 ^ ( AXHX@X.X$X$XQ.K.U.U.L.! vX5X3.5.pX3.3.3.9.9.e.a.a.9.D C H M M h N V z.Z.h p w s K K e 9 9 9 9 e J t r J K L I R ~ I ",
"d u / yXPXPXPXVX.X$X.XQ.K.Q.Q.Q..XQ vXyXa.6.pX<.3.3.5.<.r.p.e.5.Z h 7 H h z V ..n.0.u i s a a d e e 9 a U U J t r r r L L T I I ",
"1 ' FXJXmXaX(.!..X#XK.Q.#X$X#XQ.Q ! ZXfXi.A a.9.3.D <.<.6.q.5.S H < 5 z k h S z.C.] 8 0 I I i w 8 9 9 9 U J 0 e e e s s L T I J ",
"j gXJXxXg.g.(.OX#X_._.%X.X.X.XQ.! E ZX7Xp.<.3.q.3.{ 4.3.3.D S H 4 4 5 5 v Z 0.z.<X*.|.G.J J J r r e 9 9 9 J J e e a s r r r E L ",
"a.jXDXxXd.g.(.qXOX.X.X.XJ.J.Q.U.T W ZX,Xy.y.g x b b { 3.D M 7 p # ; $ 6 A i.m.y.<XuXNX&XbX+X~ t t t J e 9 9 e 9 e e a a L L J L ",
"aXjXxXg.d.h.).wX&X+X&X+XY.I.I.X.) uXPXx.0.y.V z q 3 q v v h 5 < $ + 6 A q.q.z.B.7XiXtXBXMXBX&XQ t 0 9 e 0 9 e e 9 a a K K r r r ",
"xXxXD.g.d.,.g.(.tX&X+X@XQ I.qXvXvXLXlXx.z.x h u 3 3 q k 6 2 $ + # 7 8.3.w.z.k.B.7XvX|.+XMXMXBXcXU.J 0 e e w e w 9 9 K K a r r r ",
"JXxXkXg.h.d.>.).wXOXqXnXnXGXHXqXyXPXdXC.z.} < < $ @ $ 3 < @ + @ H G 2.1.2.Z.n.M.2X2XvXMXcXnXMXcXBX9XR - : 8 8 q 9 a U U U U r t ",
"xXxXxXf.h.d.>.4.VXVXVXVXnXQ.nXwX^.wX(.V.Z.w.M 7 . . @ @ . @ 6 Z G 2.7.6.Z.l.l.V.6X[.+XcXMXBXbXcXcXMXMXeX;.c q q K 9 U U K K r t ",
"xXkXkXf.d.a.dXLXHXbXK.L.J.#XHXGX@.&.0.1Xq.q.w.M 7 < < 3 k j Z ] Z.r.r.6.l.C.k.sX:X].&X%XJ.bXCXCXBXcXcXNXLXAXi.q q U K 9 J L t a ",
"jXf.aXgXjXJXLXNX.XK.L.L.K.%XKXvXW.=. .m.k.w.w...D S Z A A 3.5.q.q.9.e.e.l.C.N.yX].&X%X*X_.`.`._.BXBXBXvXNXvXwXi.v q U U t e e a ",
").).IXJXLXHXtX`.K.L.K.Q..X.XHXvXU.Y.%.t.q.q.6.7.G 1.1.D F <.<.9.9.q.v.b.v.N.6X,X@X#X*X%X_.J.K.J.K.%XBXBXvXvX0X(.(.v q d J t P a ",
"jXIXLXLXHX&XH..XH.Q.Q.!.{.W.GXVXK.K.I.&.t.9.q.5.w.w.1.1.2.6.6.6.9.p.p.C.v.B.5XW..X%XbX.X&XOXK..XL._.*XbXBXMXvXwXaXs.b q r r L K ",
"LXLXLXGXOXQ.~.Q..XqX!./.s.4.hXvX_.K.U.#.*.i.y.9.w.q.w.w.5.5.9.w.9.q.Z.C.C.B.:XY.OX$X(.@.u.rX$XQ.~.K.~.$X*XcXnXhX).kXg.g i r K I ",
"KXKXAXeXOXQ.~.~.#X!./.).,.>.hXvX_.K.K.X.;.i.9.p.y.q.7.2.5.6.w.w.5.k.C.C.C.B.;.].OX$X(.(.4.u.nX*X*X#X~.#X#X.X&XhX).f.f.3.u E I K "
};
