/* XPM */
static char *_125e8f1a35744eada273637509d9f6dVidjDXbCOYDCRnHj[] = {
/* columns rows colors chars-per-pixel */
"64 64 158 2 ",
"   c #000000",
".  c #0C0C0C",
"X  c #151515",
"o  c gray10",
"O  c gray17",
"+  c #242424",
"@  c gray21",
"#  c gray28",
"$  c #4D4D4D",
"%  c #505050",
"&  c #585858",
"*  c #636363",
"=  c #6D6D6D",
"-  c #757575",
";  c #7D7D7D",
":  c #A7002E",
">  c #A8032F",
",  c #A70130",
"<  c #A80532",
"1  c #AA0B35",
"2  c #AA0D3A",
"3  c #AC133B",
"4  c #B7252A",
"5  c #DF7E1B",
"6  c #C64827",
"7  c #D36220",
"8  c #DA7B34",
"9  c #AE1740",
"0  c #B01E43",
"q  c #B22245",
"w  c #B22449",
"e  c #B42B4B",
"r  c #B52A41",
"t  c #B73352",
"y  c #B83754",
"u  c #B73856",
"i  c #BA3C57",
"p  c #BC4057",
"a  c #BB405E",
"s  c #BF495D",
"d  c #BD4663",
"f  c #BE4B67",
"g  c #BF4D6B",
"h  c #C04C5C",
"j  c #C04A55",
"k  c #CD6446",
"l  c #D17252",
"z  c #C65B61",
"x  c #C1536D",
"c  c #C15671",
"v  c #C45B74",
"b  c #CC6964",
"n  c #D37966",
"m  c #C6647B",
"M  c #C7687E",
"N  c #E38418",
"B  c #FDB70B",
"V  c #FDB80D",
"C  c #F7AD11",
"Z  c #F1A116",
"A  c #FAB511",
"S  c #FDBB13",
"D  c #FDBC1C",
"F  c #DD843C",
"G  c #E38F3B",
"H  c #FCBE23",
"J  c #FCBF2B",
"K  c #F8BC3A",
"L  c #FDC026",
"P  c #FCC12E",
"I  c #FCC232",
"U  c #FBC43E",
"Y  c #F8BD40",
"T  c #F5BC4B",
"R  c #EFB25A",
"E  c #F0B353",
"W  c #F1B758",
"Q  c #F4BB52",
"!  c #D68067",
"~  c #DC8C64",
"^  c #DB8E69",
"/  c #E39C65",
"(  c #E09162",
")  c #E5A265",
"_  c #EAAA61",
"`  c #F1BB6C",
"'  c #F0BC75",
"]  c #FCC745",
"[  c #FCC848",
"{  c #FCCC55",
"}  c #FCCD5C",
"|  c #FCD16B",
" . c #FBD373",
".. c #FCD77D",
"X. c #FCD97D",
"o. c #CA6C83",
"O. c #CE7A8B",
"+. c #CF7E90",
"@. c #838383",
"#. c #939393",
"$. c gray60",
"%. c #A4A4A4",
"&. c #AAAAAA",
"*. c gray70",
"=. c gray73",
"-. c #D38B9C",
";. c #D79BA8",
":. c #D99FAA",
">. c #D593A2",
",. c #DCA6B2",
"<. c #DEABB6",
"1. c #E1B4BD",
"2. c #E1B2B2",
"3. c #FBD884",
"4. c #FCE19E",
"5. c #FADFA0",
"6. c #F6DCB6",
"7. c #FCE3A7",
"8. c #FBE5B4",
"9. c #F7E1B8",
"0. c #FAE7B8",
"q. c #FCE9BA",
"w. c #E1B7C0",
"e. c #E2BAC1",
"r. c #C5C5C5",
"t. c #CDCDCD",
"y. c #D3D3D3",
"u. c #DBDBDB",
"i. c #E6C2CA",
"p. c #E9CDD2",
"a. c #EBD0D0",
"s. c #ECD6DA",
"d. c #EED9DD",
"f. c #FBEBC6",
"g. c #FCEECC",
"h. c #F9EDD2",
"j. c #FBF1DB",
"k. c #EEDEE2",
"l. c #F0DDE0",
"z. c #E3E3E3",
"x. c #EBEBEB",
"c. c #F1E1E5",
"v. c #F3E7E9",
"b. c #F3EBEC",
"n. c #F9F3E4",
"m. c #FAF6EC",
"M. c #FCF8EE",
"N. c #F6F5F5",
"B. c #F8F7F6",
"V. c #F7F8F7",
"C. c #FCFAF4",
"Z. c #F7F8F9",
"A. c #FDFDFD",
"S. c #FCFCFC",
"D. c #FCFDFE",
"F. c #FEFEFE",
"G. c white",
"H. c #FAFAFA",
/* pixels */
"                                                                                                                                ",
"                                                                                                                                ",
"                                                                                                                                ",
"                                                                                                                                ",
"                                                                                                                                ",
"                                                                                                                                ",
"                                                                                                                                ",
"                                                                                                                                ",
"                                                                                                                                ",
"                                                              .                                                                 ",
"                                                      o $ @.%.*.*.%.@.$ o                                                       ",
"                                                  + ; y.N.F.F.F.F.F.F.H.y.@.+                                                   ",
"                                              . * y.F.F.F.S.S.S.F.F.F.S.F.F.y.* .                                               ",
"                                            X #.N.F.F.F.S.F.S.F.F.F.S.F.S.S.F.N.#.X                                             ",
"                                          o &.S.F.H.F.F.F.S.S.F.F.F.S.S.F.F.S.S.F.&.o                                           ",
"                                        . %.F.F.S.S.F.S.S.S.S.m.m.V.F.F.S.S.S.S.F.F.%..                                         ",
"                                        @.S.F.H.F.S.S.F.C.7.} ] U { 4.m.S.S.F.S.F.F.F.@.                                        ",
"                                      % N.F.F.F.S.S.F.n.| S B B B B S { j.F.S.F.F.F.F.x.%                                       ",
"                                    o r.F.F.H.F.S.F.V.| S V J } } I V V { M.F.H.H.S.F.F.r.o                                     ",
"                                    - H.S.H.F.H.S.F.q.D V [ g.S.S.j.} V S 7.F.S.H.S.H.F.F.-                                     ",
"                                  + y.F.H.H.S.H.S.F. .B D f.S.S.S.S.j.J B { C.S.F.H.F.H.F.y.o                                   ",
"                                  * S.S.S.S.S.F.H.C.} B ] B.S.S.S.S.S. .I } C.S.S.S.S.S.S.S.=                                   ",
"                                . =.F.S.S.S.H.H.S.S.} B ] m.S.S.H.S.S.M.m.m.H.S.H.S.H.S.S.F.=..                                 ",
"                                @ x.S.S.H.S.H.S.H.S.X.B D 8.S.S.F.H.S.S.S.H.S.H.S.H.S.H.H.S.x.@                                 ",
"                                = F.H.H.H.H.H.V.S.S.f.H V I 8.l.d.c.N.S.S.S.H.H.S.B.S.Z.S.H.F.=                                 ",
"                                %.F.H.S.H.S.S.S.V.F.B.` A V D 8 r w d +.i.B.S.S.B.S.S.S.S.B.F.%.                                ",
"                              X t.F.H.S.S.H.H.S.S.d.o.q 7 C V A N 4 : : 3 m p.F.S.S.S.S.S.S.S.t.X                               ",
"                              O z.S.H.H.H.H.H.S.1.t : : 1 k K V S Z 6 1 : : w ,.B.H.Z.S.S.Z.S.z.O                               ",
"                              # N.H.H.H.H.H.S.1.q : > a ,.c.n...D V A G j 1 : x b.S.Z.V.B.H.V.N.#                               ",
"                              & V.H.B.H.H.S.p.e : 1 O.v.S.S.H.V.0.] S S K n g s.S.B.S.H.H.H.H.B.&                               ",
"                              * S.B.H.H.H.N.x : 1 -.b.H.H.H.H.H.S.n...D V J 6.S.H.H.H.H.H.H.H.H.*                               ",
"                              = H.H.H.H.S.1.2 : x b.C.H.H.H.V.H.Z.S.V.8.I B U n.V.H.H.B.H.H.H.F.=                               ",
"                              = S.V.V.H.N.m : 3 e.S.B.H.H.H.H.H.S.Z.D.D.0.L V X.S.S.D.H.V.H.H.H.=                               ",
"                              * H.H.V.H.l.e : s f.0.j.Z.u.u.r.z.=.k.r.z.Z.' N G 2.1.1.x.H.V.N.H.*                               ",
"                              & B.H.H.H.i.2 , n H D 0.x.@.#.@.; #.#.; t.S.-.> 1 1 1 2 <.H.N.H.N.&                               ",
"                              # N.H.H.H.<.1 < ~ S J j.S.%.%.; - #.$.$.%.S.-.> > < < > >.S.H.H.N.#                               ",
"                              O z.H.B.S.,.1 < ( S I n.V.u.y.=.u.*.y.=.u.S.a.F N l 3 : -.H.H.H.z.O                               ",
"                              X r.F.V.V.1.1 < ^ D H h.Z.B.H.H.Z.H.V.H.H.Z.n.I S ) 3 : ;.H.N.H.t.X                               ",
"                                %.S.V.S.p.3 , b L A 5.Z.B.H.V.H.H.N.N.N.Z.0.D D ! < 1 1.S.N.F.%.                                ",
"                                = S.V.V.v.u : y T B [ m.H.B.V.V.N.H.N.V.N.} V U s : w k.Z.V.H.=                                 ",
"                                @ x.H.Z.B.O.: 1 ^ H A  .m.H.N.V.H.N.H.N.3.A D / 3 : m N.V.H.x.@                                 ",
"                                . *.S.N.H.p.0 , e W S S } f.N.V.V.V.h.| D A Q p , 3 1.N.V.S.*..                                 ",
"                                  = Z.Z.H.N.+., , h Q D B D { |  .{ L V S [ z < : M N.N.N.N.=                                   ",
"                                  o t.S.N.V.v.g : , i ) K D B B B V S P _ s < > i d.H.N.H.y.o                                   ",
"                                    - V.V.V.H.d.d : , 3 z / E T T E / b 0 : > i p.Z.N.V.V.-                                     ",
"                                    o r.S.N.N.V.z.M 2 : : 1 w t t w 2 > : 1 g s.Z.N.N.N.r.o                                     ",
"                                      % x.Z.N.N.V.b.<.g 3 , : : : : : 3 a :.b.N.V.N.V.x.%                                       ",
"                                        @.N.N.N.V.N.V.b.i.-.M c x M -.1.x.N.N.N.N.V.N.@.                                        ",
"                                        . %.H.N.N.N.N.N.Z.Z.N.N.N.N.V.V.N.N.N.N.N.H.%..                                         ",
"                                          o %.N.N.N.N.N.N.N.N.V.N.Z.V.N.N.N.N.H.N.%.o                                           ",
"                                            X #.x.Z.N.N.N.V.V.N.N.N.N.V.N.N.H.x.#.X                                             ",
"                                              . * y.V.H.N.N.N.N.N.N.N.N.N.H.y.* .                                               ",
"                                                  + M r.x.Z.H.H.H.H.Z.x.t.; +                                                   ",
"                                                      o # ; %.*.*.%.; $ o                                                       ",
"                                                        .   .   .                                                               ",
"                                                                                                                                ",
"                                                                                                                                ",
"                                                                                                                                ",
"                                                                                                                                ",
"                                                                                                                                ",
"                                                                                                                                ",
"                                                                                                                                ",
"                                                                                                                                ",
"                                                                                                                                "
};
